<?xml version="1.0" encoding="UTF-8"?>
<svg id="Layer_2" xmlns="http://www.w3.org/2000/svg" xmlns:xlink="http://www.w3.org/1999/xlink" viewBox="0 0 300.23 282.53">
  <defs>
    <style>
      .cls-1 {
        stroke: #0a2d57;
      }

      .cls-1, .cls-2, .cls-3 {
        stroke-miterlimit: 10;
      }

      .cls-1, .cls-4 {
        fill: #98c6ea;
      }

      .cls-2 {
        fill: #fff;
      }

      .cls-2, .cls-3 {
        stroke: #231f20;
      }

      .cls-5 {
        fill: #e57b30;
      }

      .cls-6 {
        fill: #0065bd;
      }

      .cls-3 {
        fill: none;
      }

      .cls-7 {
        clip-path: url(#clippath);
      }
    </style>
    <clipPath id="clippath">
      <circle class="cls-3" cx="149.51" cy="145.03" r="68.86"/>
    </clipPath>
  </defs>
  <g id="Layer_1-2" data-name="Layer_1">
    <g>
      <path class="cls-5" d="M105.5,96.58c-3.34.97-6.7,1.5-9.53-1.09-2.49-2.28-2.48-5.18-2.16-8.26.11-1.07-1.6-1.52-2.05-.56-3.77,8.01,7.68,17.5,14.36,10.98.45-.44,0-1.24-.62-1.07Z"/>
      <path class="cls-5" d="M58.18,44.4c-1.27-.41-2.09,1.52-.91,2.16,4.44,2.41,8.02,4.98,10.61,9.46,2.49,4.33,3.33,9.01,3.04,13.95-.05.89,1.37,1.09,1.56.21,2.19-10.12-4.19-22.55-14.29-25.79Z"/>
      <path class="cls-5" d="M243.11,67.03c-9.84-2.32-20.04-3.4-26.99,5.36-3.18,4.01-4.94,8.81-6.59,13.59-1.73,5.02-4.3,16.08-11.37,15.23-.94-.11-1.03,1.31-.21,1.58,9.49,3.13,13.08-14.23,15.27-19.93,2.04-5.29,5-10.87,10.28-13.53,5.91-2.97,12.84-1.29,18.92.19,1.61.39,2.3-2.1.68-2.48Z"/>
      <path class="cls-5" d="M246.58,226.16c-13.52-.53-26.93-1.98-37.01-11.97-4.21-4.17-6.78-9.12-9.37-14.37-2.18-4.42-4.73-8.64-9.13-11.13-.52-.29-1.16.46-.66.86,4.85,3.81,6.86,9.61,9.45,14.99,2.56,5.3,6.07,10.05,10.62,13.82,9.81,8.14,21.91,9.66,34.17,10.31.08,1,1.56,1.55,2.3.51.25-.35.5-.71.76-1.06.6-.85-.22-1.92-1.12-1.95Z"/>
      <path class="cls-5" d="M100.28,166.57c-11.74-6.63-28.85-5.6-35.66,7.59-3.4,6.59-3.26,14.17-3.92,21.37-.74,8.11-3.47,17.65-12.49,19.73-1.7.39-.97,2.94.72,2.6,14.2-2.87,14.02-19.98,15.2-31.16.83-7.91,3.54-15.34,11-19.19,7.69-3.96,16.52-2.54,24.14.81,1.17.51,2.19-1.09,1.02-1.75Z"/>
      <path class="cls-5" d="M29.51,212.63c-4.75-.68-9.11-7.05-11.17-11.01-2.29-4.4-3.52-9.36-3.96-14.29-.97-10.97,2.17-21.59,5.79-31.82,3.76-10.63,7.77-21.09,9.51-32.29,1.65-10.6,1.73-21.4.26-32.03-1.67-12.09-5.26-24.01-10.98-34.81-.82-1.55-3.1-.18-2.33,1.36,10.71,21.65,14.61,46.03,9.83,69.84-4.3,21.41-17.85,41.77-13.69,64.3.91,4.94,2.7,9.83,5.56,13.99,2.48,3.6,6.32,7.99,10.99,8.2.81.04,1.02-1.32.19-1.44Z"/>
      <path class="cls-5" d="M237.37,26.78c-12.1-1.06-23.04,4.78-34.24,8.36-12.14,3.88-25.02,5.31-37.73,4.3-12.94-1.03-25.01-5.1-36.96-9.94-11.69-4.74-23.39-9.81-35.97-11.62-11.86-1.7-24.77-.36-34.07,7.83-.63.56.23,1.71.91,1.18,20.6-15.79,48.8-2.69,69.53,5.71,11.06,4.48,22.24,8.17,34.15,9.44,11.72,1.25,23.66.39,35.09-2.51,13.07-3.31,25.43-11.04,39.28-10.17,1.67.1,1.64-2.44,0-2.59Z"/>
      <path class="cls-5" d="M260.99,159.98c3.66-21.67,11.77-43.29,10.99-65.5-.38-10.77-2.9-21.7-9.07-30.69-.48-.69-1.57-.08-1.14.67,11.32,19.83,8.09,42.61,3.23,63.86-4.82,21.07-9.65,42.14-9.56,63.89.05,11.94,1.61,23.83,5.15,35.25.49,1.59,2.99.91,2.49-.69-6.66-21.69-5.83-44.64-2.09-66.8Z"/>
      <path class="cls-5" d="M247.62,248.87c-20,14.12-45.59,15.48-68.86,10.31-12.57-2.79-24.68-7.29-36.51-12.31-10.93-4.63-22.04-10.02-34.23-8.97-12.32,1.06-25.39,6.61-34.24,15.34-.55.54.26,1.3.83.83,9.75-7.96,22.56-13.66,35.27-13.96,12.8-.3,24.33,6.39,35.82,11.13,22.03,9.1,45.82,16,69.86,12.84,12.02-1.58,23.62-5.65,33.55-12.67,1.53-1.09.07-3.64-1.49-2.54Z"/>
      <circle class="cls-1" cx="149.51" cy="145.03" r="68.86"/>
      <g>
        <g class="cls-7">
          <path class="cls-2" d="M194.66,133.2c-.58-6.02-3.14-11.71-7.26-16.14.03,0,.07-.02.1-.04,2.65-1.66,3.79-5.13,2.46-8.01-1.71-3.69-5.41-3.99-8.95-3.51.7-1.95.96-3.97.65-6.04-.21-1.39-.57-3.4-2.23-3.7-4.02-.73-5.86,5.12-6.49,8.08-3.24-6.66-9.79-11.43-17.07-12.71-6.11-1.07-15.99.92-15.53,8.79-9.9-5.91-22.92-4.08-30.47,4.82-5.7,6.73-9.28,20.91.31,26.15.01,7.95,0,16.05.65,23.97,0,0,0,0,0,0-.04.1-.09.19-.13.29,0,.01,0,.02-.01.03-.05-.1-.14-.17-.28-.16-3.02.17-5.69,2.83-5.26,5.98.41,3,3.47,4.8,6.29,4.4.58,7.74,0,22.21,10.16,23.87,2.26.37,4.52-.19,6.78-.06,4.14.24,4.92,3.63,5.04,7.11.21,5.95.08,11.89-.19,17.84-.55-.14-1.1-.28-1.64-.44-.21-.06-.29.26-.09.32.57.18,1.14.34,1.71.51-.02.34-.03.67-.05,1.01-.02.37.55.37.58,0,.02-.28.03-.56.05-.84,10.51,2.87,21.57,2.91,32.14.26.18,1.45.38,2.89.62,4.33.05.3.57.24.54-.07-.16-1.48-.31-2.97-.44-4.44.36-.09.71-.18,1.07-.28.42-.12.24-.78-.18-.66-.31.09-.63.17-.95.25-.92-10.64-.95-21.17.5-31.83,2.14,2.28,5.91,1.77,8.07-.4,3.3-3.32,4.04-9.01,4.29-13.63.88,1.01,2.42,1.29,3.74.7,2.45-1.09,3.43-4.51,4.22-6.81,2.37-6.88,2.89-14.2,1.78-21.36,1.27.68,2.84.41,3.97-.61,1.86-1.69,1.71-4.7,1.49-6.97Z"/>
        </g>
        <circle class="cls-3" cx="149.51" cy="145.03" r="68.86"/>
      </g>
      <circle class="cls-4" cx="80.64" cy="79.27" r="17.07" transform="translate(-31.81 67.4) rotate(-38.48)"/>
      <circle class="cls-4" cx="218.37" cy="82.04" r="12.07"/>
      <circle class="cls-4" cx="211.44" cy="212.69" r="17.07" transform="translate(-43.63 54.94) rotate(-13.43)"/>
      <circle class="cls-4" cx="57.69" cy="181.3" r="12.07"/>
      <circle class="cls-6" cx="260.6" cy="39.63" r="39.63" transform="translate(48.3 195.88) rotate(-45)"/>
      <circle class="cls-6" cx="34" cy="34" r="34"/>
      <circle class="cls-6" cx="42.7" cy="243.46" r="39.08" transform="translate(-56.18 16.92) rotate(-13.63)"/>
      <circle class="cls-6" cx="263.26" cy="247.89" r="34"/>
    </g>
  </g>
</svg>