<?xml version="1.0" encoding="UTF-8"?>
<svg xmlns="http://www.w3.org/2000/svg" version="1.1" xmlns:xlink="http://www.w3.org/1999/xlink" viewBox="0 0 300.2 282.5">
  <defs>
    <style>
      .cls-1 {
        fill: #fff;
      }

      .cls-2 {
        fill: #e57b30;
      }

      .cls-3 {
        fill: none;
      }

      .cls-4 {
        fill: #231f20;
      }

      .cls-5 {
        isolation: isolate;
      }

      .cls-6 {
        fill: #005293;
      }

      .cls-7 {
        fill: #072140;
      }

      .cls-8 {
        fill: #0065bd;
      }

      .cls-9 {
        fill: #0a2d57;
      }

      .cls-10 {
        clip-path: url(#clippath);
      }

      .cls-11 {
        fill: #98c6ea;
      }
    </style>
    <clipPath id="clippath">
      <circle class="cls-3" cx="149.5" cy="144.9" r="67"/>
    </clipPath>
  </defs>
  <!-- Generator: Adobe Illustrator 28.6.0, SVG Export Plug-In . SVG Version: 1.2.0 Build 709)  -->
  <g>
    <g id="Layer_1">
      <g id="Layer_1-2" data-name="Layer_1">
        <g id="Layer_1-2">
          <g id="Layer_2">
            <g>
              <g>
                <path class="cls-2" d="M106.7,97.8c-3.3.9-6.5,1.5-9.3-1.1-2.4-2.2-2.4-5-2.1-8,0-1-1.6-1.5-2-.5-3.7,7.8,7.5,17,14,10.7.4-.4,0-1.2-.6-1h0Z"/>
                <path class="cls-2" d="M60.7,47.1c-1.2-.4-2,1.5-.9,2.1,4.3,2.3,7.8,4.8,10.3,9.2,2.4,4.2,3.2,8.8,3,13.6,0,.9,1.3,1.1,1.5.2,2.1-9.8-4.1-21.9-13.9-25.1Z"/>
                <path class="cls-2" d="M240.6,69.1c-9.6-2.3-19.5-3.3-26.2,5.2-3.1,3.9-4.8,8.6-6.4,13.2-1.7,4.9-4.2,15.6-11.1,14.8-.9,0-1,1.3-.2,1.5,9.2,3,12.7-13.8,14.9-19.4,2-5.1,4.9-10.6,10-13.2,5.7-2.9,12.5-1.3,18.4.2,1.6.4,2.2-2,.7-2.4h0Z"/>
                <path class="cls-2" d="M243.9,223.8c-13.2-.5-26.2-1.9-36-11.6-4.1-4.1-6.6-8.9-9.1-14-2.1-4.3-4.6-8.4-8.9-10.8-.5-.3-1.1.4-.6.8,4.7,3.7,6.7,9.4,9.2,14.6,2.5,5.2,5.9,9.8,10.3,13.4,9.5,7.9,21.3,9.4,33.2,10,0,1,1.5,1.5,2.2.5.2-.3.5-.7.7-1,.6-.8-.2-1.9-1.1-1.9h.1Z"/>
                <path class="cls-2" d="M101.6,165.9c-11.4-6.5-28.1-5.4-34.7,7.4-3.3,6.4-3.2,13.8-3.8,20.8-.7,7.9-3.4,17.2-12.2,19.2-1.6.4-.9,2.9.7,2.5,13.8-2.8,13.6-19.4,14.8-30.3.8-7.7,3.4-14.9,10.7-18.7,7.5-3.9,16.1-2.5,23.5.8,1.1.5,2.1-1.1,1-1.7Z"/>
                <path class="cls-2" d="M32.8,210.7c-4.6-.7-8.9-6.9-10.9-10.7-2.2-4.3-3.4-9.1-3.8-13.9-.9-10.7,2.1-21,5.6-30.9,3.7-10.3,7.6-20.5,9.3-31.4,1.6-10.3,1.7-20.8.3-31.1-1.6-11.8-5.1-23.4-10.7-33.9-.8-1.5-3-.2-2.3,1.3,10.4,21.1,14.2,44.8,9.6,67.9-4.2,20.8-17.4,40.6-13.3,62.5.9,4.8,2.6,9.6,5.4,13.6,2.4,3.5,6.1,7.8,10.7,8,.8,0,1-1.3.2-1.4h0Z"/>
                <path class="cls-2" d="M235,29.9c-11.8-1-22.4,4.6-33.3,8.1-11.8,3.8-24.3,5.2-36.7,4.2-12.6-1-24.3-5-35.9-9.7-11.4-4.6-22.7-9.5-35-11.3-11.5-1.7-24.1-.4-33.1,7.6-.6.5.2,1.7.9,1.2,20-15.4,47.5-2.6,67.6,5.6,10.8,4.4,21.6,7.9,33.2,9.2,11.4,1.2,23,.4,34.1-2.4,12.7-3.2,24.7-10.7,38.2-9.9,1.6,0,1.6-2.4,0-2.5h0Z"/>
                <path class="cls-2" d="M257.9,159.5c3.6-21.1,11.4-42.1,10.7-63.7-.4-10.5-2.8-21.1-8.8-29.8-.5-.7-1.5,0-1.1.6,11,19.3,7.9,41.4,3.1,62.1-4.7,20.5-9.4,41-9.3,62.1,0,11.6,1.6,23.2,5,34.3.5,1.5,2.9.9,2.4-.7-6.5-21.1-5.7-43.4-2-65h0Z"/>
                <path class="cls-2" d="M244.9,245.9c-19.5,13.7-44.3,15.1-67,10-12.2-2.7-24-7.1-35.5-12-10.6-4.5-21.4-9.7-33.3-8.7-12,1-24.7,6.4-33.3,14.9-.5.5.2,1.3.8.8,9.5-7.7,21.9-13.3,34.3-13.6s23.7,6.2,34.8,10.8c21.4,8.9,44.6,15.6,67.9,12.5,11.7-1.5,23-5.5,32.6-12.3,1.5-1.1,0-3.5-1.4-2.5h0Z"/>
                <g>
                  <circle class="cls-11" cx="149.5" cy="144.9" r="67"/>
                  <path class="cls-9" d="M149.5,212.4c-37.2,0-67.5-30.3-67.5-67.5s30.3-67.5,67.5-67.5,67.5,30.3,67.5,67.5-30.3,67.5-67.5,67.5ZM149.5,78.4c-36.7,0-66.5,29.8-66.5,66.5s29.8,66.5,66.5,66.5,66.5-29.8,66.5-66.5-29.8-66.5-66.5-66.5Z"/>
                </g>
                <g>
                  <g class="cls-10">
                    <g>
                      <path class="cls-1" d="M193.4,133.4c-.6-5.9-3.1-11.4-7.1-15.7h0c2.6-1.6,3.7-5,2.4-7.8-1.7-3.6-5.3-3.9-8.7-3.4.7-1.9.9-3.9.6-5.9-.2-1.3-.6-3.3-2.2-3.6-3.9-.7-5.7,5-6.3,7.9-3.2-6.5-9.5-11.1-16.6-12.4-5.9-1-15.5.9-15.1,8.5-9.6-5.8-22.3-4-29.6,4.7-5.5,6.5-9,20.3.3,25.4,0,7.7,0,15.6.6,23.3h0v.3h0s0-.2-.3-.2c-2.9.2-5.5,2.8-5.1,5.8.4,2.9,3.4,4.7,6.1,4.3.6,7.5,0,21.6,9.9,23.2,2.2.4,4.4-.2,6.6,0,4,.2,4.8,3.5,4.9,6.9.2,5.8,0,11.6-.2,17.3-.5-.1-1.1-.3-1.6-.4-.2,0-.3.3,0,.3.6.2,1.1.3,1.7.5v1c0,.4.5.4.6,0v-.8c10.2,2.8,21,2.8,31.3.2.2,1.4.4,2.8.6,4.2,0,.3.6.2.5,0-.2-1.4-.3-2.9-.4-4.3.3,0,.7-.2,1-.3.4-.1.2-.8-.2-.6-.3,0-.6.2-.9.2-.9-10.3-.9-20.6.5-31,2.1,2.2,5.7,1.7,7.8-.4,3.2-3.2,3.9-8.8,4.2-13.3.9,1,2.4,1.3,3.6.7,2.4-1.1,3.3-4.4,4.1-6.6,2.3-6.7,2.8-13.8,1.7-20.8,1.2.7,2.8.4,3.9-.6,1.8-1.6,1.7-4.6,1.4-6.8v.2h0Z"/>
                      <path class="cls-4" d="M166.4,217.7h-.3c-.3-.1-.4-.3-.4-.6l-.5-3.6c-10.1,2.5-20.6,2.4-30.4-.2v.3c-.1.4-.5.7-.9.7s-.7-.4-.7-.8v-.6c-.2,0-.3,0-.5-.1-.3,0-.5-.1-.8-.2h0l-.5-.3v-.3c0-.4.3-.7.6-.7s.6.1.9.2h.2c.2-5.4.4-11,.2-16.7-.1-4.4-1.5-6.3-4.4-6.4h-2.9c-1.2,0-2.5.2-3.8,0-9.1-1.5-9.7-13-10.1-20.6,0-.9,0-1.7,0-2.5-1.4,0-2.8-.4-4-1.2-1.2-.9-2-2.2-2.1-3.6-.2-1.4.2-2.9,1.2-4.1,1-1.3,2.6-2.1,4.2-2.3-.6-7.5-.6-15.2-.6-22.6-2.9-1.7-4.8-4.5-5.5-8-1.2-6.3,1.8-13.8,5.3-18,7.1-8.5,19.7-10.7,29.5-5.2,0-2.1.9-3.8,2.5-5.2,3.3-3,9.2-3.6,13.2-2.9,6.9,1.3,12.9,5.5,16.3,11.5.8-2.8,2.7-7.7,6.6-7,2,.4,2.4,2.9,2.6,4,.3,1.8.2,3.6-.4,5.4,4.3-.4,7,.8,8.4,3.8,1.3,2.8.4,6.2-2.1,8.1,3.8,4.2,6.2,9.7,6.8,15.3h0c.5,3.5,0,5.9-1.6,7.2-1,.9-2.4,1.3-3.6,1,1,7,.4,13.8-1.8,20.2,0,.3-.2.5-.3.8-.8,2.2-1.8,5-4.1,6.1-1.1.5-2.4.4-3.4-.2-.4,4.7-1.2,9.6-4.3,12.7-1.2,1.2-3,2-4.7,2h0c-1.1,0-2.2-.3-3-.9-1.2,9.2-1.3,18.9-.4,29.4h.3c.2,0,.5,0,.7.1.3.2.4.5.3.9,0,.3-.3.5-.6.6h-.2c-.1,0-.3,0-.4.1,0,1.3.2,2.6.4,3.8,0,.2,0,.4-.1.6-.1.2-.4.2-.6.2v-.2ZM166.7,216.9h0ZM134.2,212.1h.2c10,2.8,20.7,2.9,31,.3h.2v-.3c-1-11.2-.8-21.3.5-31.1v-1c.1,0,.9.8.9.8,1,1,2.2,1.3,3,1.3h0c1.4,0,2.9-.6,4-1.7,3-3,3.7-8.3,4.1-13v-1.2l.9.9c.8.8,2,1.1,3,.6,2-.9,2.9-3.5,3.6-5.5,0-.3.2-.5.3-.8,2.2-6.5,2.8-13.4,1.7-20.6l-.2-1,.9.5c1,.6,2.3.3,3.3-.5,1.2-1.1,1.7-3.1,1.3-6.2h0c-.6-5.7-3.1-11.2-7-15.4l-.4-.4.5-.3c2.4-1.5,3.4-4.6,2.2-7.2-1.3-2.8-3.9-3.7-8.2-3.1h-.8c0,0,.3-.7.3-.7.7-1.8.9-3.7.6-5.7-.2-1.4-.6-3-1.8-3.2-3.7-.7-5.3,5.6-5.7,7.5l-.3,1.4-.6-1.3c-3.1-6.3-9.2-10.8-16.2-12.1-3.8-.6-9.3,0-12.3,2.7-1.6,1.4-2.3,3.2-2.2,5.3v.9l-.8-.5c-9.5-5.7-21.9-3.8-29,4.6-3.4,4-6.2,11.2-5.1,17.2.6,3.4,2.4,5.9,5.3,7.4h.3v.4c0,7.7,0,15.6.6,23.3v.3h-1c0,.2.2.3.2.3-1.4,0-2.7.8-3.6,1.9-.8,1-1.2,2.2-1,3.3s.8,2.2,1.8,2.9c1.1.8,2.5,1.2,3.8,1h.5v.5c0,.9,0,1.9.2,3,.4,7.8,1,18.4,9.3,19.7,1.2.2,2.3.1,3.6,0,1,0,2-.1,3,0,4.6.2,5.3,4.3,5.4,7.4.2,5.9,0,11.7-.2,17.3h.1-.2ZM167.1,211.9h0Z"/>
                    </g>
                  </g>
                  <path class="cls-4" d="M149.5,212.4c-37.2,0-67.5-30.3-67.5-67.5s30.3-67.5,67.5-67.5,67.5,30.3,67.5,67.5-30.3,67.5-67.5,67.5ZM149.5,78.4c-36.7,0-66.5,29.8-66.5,66.5s29.8,66.5,66.5,66.5,66.5-29.8,66.5-66.5-29.8-66.5-66.5-66.5Z"/>
                </g>
                <circle class="cls-11" cx="82.5" cy="81" r="16.6"/>
                <circle class="cls-11" cx="216.5" cy="83.7" r="11.7"/>
                <circle class="cls-11" cx="209.7" cy="210.8" r="16.6"/>
                <circle class="cls-11" cx="60.2" cy="180.2" r="11.7"/>
                <circle class="cls-8" cx="257.5" cy="42.4" r="38.5"/>
                <circle class="cls-8" cx="37.2" cy="36.9" r="33.1"/>
                <circle class="cls-8" cx="45.5" cy="240.6" r="38"/>
                <circle class="cls-8" cx="260.1" cy="245" r="33.1"/>
              </g>
              <g>
                <g class="cls-5">
                  <g class="cls-5">
                    <g class="cls-5">
                      <path class="cls-6" d="M124.9,141.8v-11h2.2v4.3h4.3v-4.3h2.2v11h-2.2v-4.8h-4.3v4.8s-2.2,0-2.2,0Z"/>
                      <path class="cls-6" d="M135.5,137.7c0-.7.2-1.4.5-2s.8-1.2,1.5-1.5c.6-.3,1.3-.5,2.1-.5,1.2,0,2.2.4,3,1.2s1.2,1.8,1.2,3-.4,2.2-1.2,3-1.7,1.2-2.9,1.2-1.4-.2-2.1-.5c-.7-.3-1.2-.8-1.5-1.4-.3-.6-.5-1.4-.5-2.3v-.2ZM137.6,137.8c0,.8.2,1.4.6,1.8s.8.6,1.4.6,1-.2,1.4-.6c.4-.4.6-1,.6-1.8s-.2-1.4-.6-1.8-.8-.6-1.4-.6-1,.2-1.4.6c-.4.4-.6,1-.6,1.8Z"/>
                      <path class="cls-6" d="M146.8,141.8l-2.5-7.9h2l1.5,5.2,1.4-5.2h2l1.3,5.2,1.5-5.2h2.1l-2.5,7.9h-2l-1.4-5.1-1.3,5.1h-2.1Z"/>
                      <path class="cls-6" d="M161.4,132.8v-1.9h2.1v1.9h-2.1ZM161.4,141.8v-7.9h2.1v7.9h-2.1Z"/>
                      <path class="cls-6" d="M169.3,133.9v1.7h-1.4v4.3c0,.1,0,.2.2.3,0,0,.2.1.4.1s.5,0,.8-.2l.2,1.6c-.5.2-1,.3-1.7.3s-.7,0-1-.2c-.3-.1-.5-.3-.7-.5-.1-.2-.2-.5-.3-.8v-5h-1v-1.7h1v-1.6l2.1-1.2v2.8h1.4Z"/>
                    </g>
                  </g>
                  <g class="cls-5">
                    <g class="cls-5">
                      <path class="cls-6" d="M128.1,160l-2.5-7.9h2l1.5,5.2,1.4-5.2h2l1.3,5.2,1.5-5.2h2.1l-2.5,7.9h-2l-1.4-5.1-1.3,5.1h-2.1Z"/>
                      <path class="cls-6" d="M138,155.9c0-.7.2-1.4.5-2s.8-1.2,1.5-1.5c.6-.3,1.3-.5,2.1-.5,1.2,0,2.2.4,3,1.2s1.2,1.8,1.2,3-.4,2.2-1.2,3-1.7,1.2-2.9,1.2-1.4-.2-2.1-.5c-.7-.3-1.2-.8-1.5-1.4-.3-.6-.5-1.4-.5-2.3v-.2ZM140.2,156c0,.8.2,1.4.6,1.8s.8.6,1.4.6,1-.2,1.4-.6c.4-.4.6-1,.6-1.8s-.2-1.4-.6-1.8-.8-.6-1.4-.6-1,.2-1.4.6c-.4.4-.6,1-.6,1.8Z"/>
                      <path class="cls-6" d="M149.9,160h-2.1v-7.9h1.9v1.1c.3-.5.6-.9.9-1.1.3-.2.6-.3.9-.3s.9.1,1.4.4l-.6,1.8c-.4-.2-.7-.3-1-.3s-.5,0-.7.2-.4.5-.5.9-.2,1.3-.2,2.7v2.5h0Z"/>
                      <path class="cls-6" d="M153.7,160v-11h2.1v5.8l2.5-2.8h2.6l-2.7,2.9,2.9,5h-2.3l-2-3.6-1,1v2.5h-2.1v.2Z"/>
                      <path class="cls-6" d="M161.6,157.7l2.1-.3c0,.4.3.7.5.9.3.2.7.3,1.2.3s1,0,1.2-.3c.2-.1.3-.3.3-.6s0-.3-.2-.4c-.1,0-.3-.2-.7-.3-1.7-.4-2.8-.7-3.2-1-.6-.4-.9-1-.9-1.8s.3-1.3.8-1.7c.5-.5,1.4-.7,2.5-.7s1.9.2,2.4.5c.5.4.9.9,1.1,1.6l-2,.4c0-.3-.2-.5-.5-.7-.2-.2-.6-.2-1-.2s-.9,0-1.2.2c-.2.1-.2.3-.2.4s0,.3.2.4c.2.1.8.3,2,.6,1.1.3,1.9.6,2.3.9.4.4.7.9.7,1.6s-.3,1.4-.9,1.9c-.6.5-1.5.8-2.7.8s-1.9-.2-2.6-.7c-.6-.4-1-1-1.2-1.8h0Z"/>
                    </g>
                  </g>
                </g>
                <g>
                  <g class="cls-5">
                    <g class="cls-5">
                      <g class="cls-5">
                        <path class="cls-7" d="M83.7,86.4h-1.6v-10.1c-.4.4-.9.7-1.5,1.1s-1.2.6-1.7.8v-1.5c.9-.4,1.7-.9,2.3-1.5s1.1-1.2,1.4-1.7h1v12.9h0Z"/>
                      </g>
                    </g>
                  </g>
                  <g class="cls-5">
                    <g class="cls-5">
                      <g class="cls-5">
                        <path class="cls-7" d="M219.8,87.8v1.5h-8.5c0-.4,0-.7.2-1.1.2-.6.6-1.2,1-1.7s1.2-1.2,2.1-2c1.4-1.1,2.3-2.1,2.8-2.7s.7-1.3.7-1.9-.2-1.2-.7-1.6c-.4-.4-1-.6-1.8-.6s-1.4.2-1.8.7-.7,1.1-.7,1.9l-1.6-.2c.1-1.2.5-2.1,1.3-2.8.7-.6,1.7-1,2.9-1s2.2.3,2.9,1,1.1,1.5,1.1,2.5-.1,1-.3,1.5-.6,1-1.1,1.6-1.3,1.3-2.4,2.3c-.9.8-1.6,1.3-1.8,1.6s-.5.6-.7.9h6.4Z"/>
                      </g>
                    </g>
                  </g>
                  <g class="cls-5">
                    <g class="cls-5">
                      <g class="cls-5">
                        <path class="cls-7" d="M204,212.4l1.6-.2c.2.9.5,1.5.9,1.9s1,.6,1.6.6,1.4-.3,1.9-.8.8-1.2.8-1.9-.2-1.3-.7-1.8-1.1-.7-1.8-.7-.7,0-1.1.2l.2-1.4h.3c.7,0,1.3-.2,1.8-.5s.8-.9.8-1.6-.2-1.1-.6-1.4-.9-.6-1.5-.6-1.1.2-1.5.6-.7,1-.8,1.7l-1.6-.3c.2-1.1.6-1.9,1.3-2.5s1.5-.9,2.6-.9,1.4.2,1.9.5,1,.7,1.4,1.2.5,1.1.5,1.7-.1,1.1-.4,1.5-.7.8-1.3,1.1c.8.2,1.4.5,1.8,1.1.4.6.6,1.2.6,2.1s-.4,2.1-1.2,2.9c-.8.8-1.9,1.2-3.1,1.2s-2.1-.3-2.8-1-1.2-1.5-1.3-2.6h-.3Z"/>
                      </g>
                    </g>
                  </g>
                  <g class="cls-5">
                    <g class="cls-5">
                      <g class="cls-5">
                        <path class="cls-7" d="M60.9,185.6v-3.1h-5.6v-1.5l5.9-8.3h1.3v8.3h1.7v1.5h-1.7v3.1h-1.6ZM60.9,181.1v-5.8l-4,5.8h4Z"/>
                      </g>
                    </g>
                  </g>
                  <g class="cls-5">
                    <g class="cls-5">
                      <g class="cls-5">
                        <path class="cls-1" d="M21.4,28.4v-6.6h-2.4v-1.4h6.3v1.4h-2.4v6.6h-1.6.1Z"/>
                        <path class="cls-1" d="M30,28.4v-.9c-.2.3-.5.6-.8.7-.3.2-.7.2-1,.2s-.7,0-1-.2c-.3-.1-.6-.5-.7-.7s-.2-.7-.2-1.3v-3.6h1.5v4.1c0,.2.1.3.3.5.1,0,.3.1.6.1s.5,0,.7-.2c.2-.1.3-.3.5-.6v-4h1.5v5.7h-1.4v.2Z"/>
                        <path class="cls-1" d="M35.7,22.7v1.3h-1v3.1s0,.1.1.2h.2c.1,0,.3,0,.6-.1v1.1c-.2.1-.6.2-1,.2s-.6,0-.7-.1c-.2,0-.3-.2-.5-.3,0-.1-.2-.3-.2-.6v-3.5h-.7v-1.3h.7v-1.1l1.5-.9v2s1,0,1,0Z"/>
                        <path class="cls-1" d="M36.4,25.4c0-.5.1-1,.3-1.5s.6-.8,1-1c.5-.2.9-.3,1.5-.3.9,0,1.6.2,2.2.8s.8,1.3.8,2.2-.2,1.6-.8,2.2-1.3.9-2.2.9-1-.1-1.5-.3-.8-.6-1.1-1c-.2-.5-.3-1-.3-1.7h.1ZM37.9,25.5c0,.6.1,1,.5,1.3.2.3.6.5,1,.5s.7-.1,1-.5c.2-.3.5-.8.5-1.4s-.1-1-.5-1.3c-.2-.3-.6-.5-1-.5s-.7.1-1,.5c-.2.3-.5.7-.5,1.3h0Z"/>
                        <path class="cls-1" d="M44.9,28.4h-1.5v-5.7h1.4v.8c.2-.3.5-.7.7-.8s.5-.2.7-.2.7,0,1,.3l-.5,1.4c-.2-.1-.5-.2-.7-.2s-.3,0-.6.2-.2.3-.3.7c0,.3-.1.9-.1,1.9v1.8-.2Z"/>
                        <path class="cls-1" d="M47.2,26.8l1.5-.2c0,.3.2.6.3.7.2.1.5.2.8.2s.7,0,.9-.2c.1,0,.2-.2.2-.5v-.3l-.5-.2c-1.3-.2-2-.6-2.3-.7-.5-.3-.7-.7-.7-1.3s.2-.9.6-1.3,1-.5,1.8-.5,1.4.1,1.7.3c.3.2.7.7.8,1.1l-1.5.2c0-.2-.2-.3-.3-.5-.2-.1-.5-.2-.7-.2s-.7,0-.9.1c-.1,0-.2.2-.2.3s0,.2.1.2.6.2,1.4.5c.8.2,1.4.5,1.7.7s.5.7.5,1.1-.2,1-.7,1.4c-.5.3-1.1.6-1.9.6s-1.4-.1-1.8-.5c-.5-.3-.8-.8-.9-1.3h.1Z"/>
                      </g>
                    </g>
                  </g>
                  <g class="cls-5">
                    <g class="cls-5">
                      <g class="cls-5">
                        <path class="cls-1" d="M10.7,41v-5.6h.7v2.3h2.8v-2.3h.7v5.6h-.7v-2.6h-2.8v2.6h-.7Z"/>
                        <path class="cls-1" d="M18.9,40.6c-.2.2-.5.3-.7.5-.2,0-.5.1-.8.1s-.8,0-1-.3-.3-.5-.3-.8,0-.3.1-.6c0-.1.2-.3.3-.3s.3-.2.5-.2h.6c.6,0,.9-.1,1.3-.2v-.2c0-.2,0-.5-.2-.6s-.5-.2-.8-.2-.6,0-.7.1c-.1,0-.2.3-.3.6h-.7c0-.3.1-.6.3-.8.1-.2.3-.3.6-.5.2,0,.6-.1.9-.1s.6,0,.8.1c.2,0,.3.2.5.3s.2.2.2.5v2.8c0,.1,0,.3.2.5h-.7c0-.1-.1-.3-.1-.5h.1ZM18.8,39c-.2,0-.6.2-1.1.2s-.5,0-.6.1c-.1,0-.2.1-.2.2v.3c0,.2,0,.3.2.5s.3.2.6.2.5,0,.7-.2c.2-.1.3-.2.5-.5v-.9Z"/>
                        <path class="cls-1" d="M20.5,41v-4h.6v.6c.3-.5.7-.7,1.3-.7s.5,0,.7.1.3.2.5.3c0,.1.2.3.2.5v3.2h-.7v-3c0-.1-.1-.2-.2-.3-.1,0-.3-.1-.5-.1-.3,0-.6,0-.8.2s-.3.6-.3,1v2.2s-.7,0-.7,0Z"/>
                        <path class="cls-1" d="M27.4,41v-.5c-.2.5-.7.6-1.1.6s-.6,0-.9-.2c-.2-.2-.5-.5-.6-.7-.1-.3-.2-.7-.2-1.1s0-.8.2-1.1c.1-.3.3-.6.6-.8s.6-.2.9-.2.5,0,.7.1c.2,0,.3.2.5.5v-1.9h.7v5.6h-.7ZM25.2,39c0,.6,0,.9.3,1.1s.5.3.8.3.6-.1.8-.3.3-.6.3-1.1,0-.9-.3-1.3-.5-.3-.8-.3-.6.1-.8.3-.3.7-.3,1.1h0Z"/>
                        <path class="cls-1" d="M28.9,39.3v-.7h2v.7h-2Z"/>
                        <path class="cls-1" d="M31.5,39.2h.7c0,.2,0,.5.2.6.1.2.3.3.6.5.2,0,.6.1.8.1s.6,0,.8-.1.3-.2.5-.3c0-.1.1-.3.1-.5s0-.3-.1-.5c0-.1-.2-.2-.5-.3-.1,0-.5-.1-1-.2s-.9-.2-1-.3c-.2-.1-.5-.3-.6-.6s-.2-.5-.2-.7,0-.6.2-.8c.1-.2.3-.5.7-.6s.7-.2,1-.2.8,0,1.1.2c.3.1.6.3.7.6s.2.6.2.9h-.7c0-.3-.1-.6-.3-.8s-.6-.2-.9-.2-.8,0-1,.2c-.2.1-.3.3-.3.6s0,.3.2.5c.1.1.5.2,1.1.3.6.1,1,.2,1.3.3.3.1.6.3.7.6s.2.5.2.8,0,.6-.2.8c-.1.2-.5.5-.7.6-.3.1-.7.2-1,.2s-.9,0-1.3-.2c-.3-.1-.6-.3-.8-.7s-.3-.6-.3-1v.3Z"/>
                        <path class="cls-1" d="M39.6,39.8h.7c0,.5-.3.8-.6,1-.3.2-.7.3-1.1.3s-1-.2-1.4-.6-.6-.9-.6-1.5.2-1.3.6-1.6c.3-.3.8-.6,1.4-.6s1,.2,1.4.6.5.9.5,1.6,0,0,0,.2h-3c0,.5.1.8.3,1s.5.3.8.3.5,0,.7-.2c.2-.1.3-.3.5-.7h-.1ZM37.4,38.6h2.3c0-.3-.1-.6-.2-.8-.2-.2-.5-.3-.8-.3s-.6,0-.8.3c-.2.2-.3.5-.3.8h-.1Z"/>
                        <path class="cls-1" d="M41.2,41v-5.6h.7v5.6h-.7Z"/>
                        <path class="cls-1" d="M45.6,39.8h.7c0,.5-.3.8-.6,1-.3.2-.7.3-1.1.3s-1-.2-1.4-.6-.6-.9-.6-1.5.2-1.3.6-1.6c.3-.3.8-.6,1.4-.6s1,.2,1.4.6.5.9.5,1.6,0,0,0,.2h-3c0,.5.1.8.3,1s.5.3.8.3.5,0,.7-.2c.2-.1.3-.3.5-.7h-.1ZM43.3,38.6h2.3c0-.3-.1-.6-.2-.8-.2-.2-.5-.3-.8-.3s-.6,0-.8.3c-.2.2-.3.5-.3.8h-.1Z"/>
                        <path class="cls-1" d="M49.8,39.5h.7c0,.6-.2.9-.6,1.1s-.7.3-1.1.3-1-.2-1.4-.6-.5-.9-.5-1.6,0-.8.2-1.1c.1-.3.3-.6.7-.7s.6-.2.9-.2.8,0,1,.3c.2.2.5.6.6.9h-.7c0-.1-.2-.3-.3-.5-.1-.1-.3-.2-.6-.2-.3,0-.6.1-.8.3s-.3.7-.3,1.1,0,.9.3,1.1c.2.2.5.3.8.3s.5,0,.7-.2c.2-.1.3-.5.3-.8v.2Z"/>
                        <path class="cls-1" d="M52.5,40.4v.6h-.5c-.2,0-.5,0-.6-.1l-.3-.3v-3.1h-.5v-.6h.5v-1l.7-.5v1.4h.7v.6h-.7v2.7h.1c0,.1.1.1.2.1h.3v.2Z"/>
                        <path class="cls-1" d="M55.9,39.8h.7c0,.5-.3.8-.6,1-.3.2-.7.3-1.1.3s-1-.2-1.4-.6-.6-.9-.6-1.5.2-1.3.6-1.6c.3-.3.8-.6,1.4-.6s1,.2,1.4.6.5.9.5,1.6,0,0,0,.2h-3c0,.5.1.8.3,1s.5.3.8.3.5,0,.7-.2c.2-.1.3-.3.5-.7h-.1ZM53.7,38.6h2.3c0-.3-.1-.6-.2-.8-.2-.2-.5-.3-.8-.3s-.6,0-.8.3c-.2.2-.3.5-.3.8h-.1Z"/>
                        <path class="cls-1" d="M60,41v-.5c-.2.5-.7.6-1.1.6s-.6,0-.9-.2c-.2-.2-.5-.5-.6-.7-.1-.3-.2-.7-.2-1.1s0-.8.2-1.1c.1-.3.3-.6.6-.8s.6-.2.9-.2.5,0,.7.1c.2,0,.3.2.5.5v-1.9h.7v5.6h-.7ZM57.9,39c0,.6,0,.9.3,1.1s.5.3.8.3.6-.1.8-.3.3-.6.3-1.1,0-.9-.3-1.3-.5-.3-.8-.3-.6.1-.8.3-.3.7-.3,1.1h0Z"/>
                      </g>
                    </g>
                    <g class="cls-5">
                      <g class="cls-5">
                        <path class="cls-1" d="M13.8,52v-4.9h-1.8v-.7h4.4v.7h-1.8v4.9h-.8Z"/>
                        <path class="cls-1" d="M20.7,46.5h.7v3.2c0,.6,0,1-.2,1.4-.1.3-.3.6-.7.8-.3.2-.8.3-1.3.3s-.9,0-1.3-.2-.6-.5-.7-.8-.2-.8-.2-1.4v-3.2h.7v3.2c0,.5,0,.8.1,1s.2.5.5.6.5.2.8.2c.6,0,.9-.1,1.1-.3s.3-.7.3-1.4v-3.4Z"/>
                        <path class="cls-1" d="M22.6,52v-5.6h1.1l1.4,3.9c.1.3.2.7.2.8,0-.2.1-.5.3-.9l1.4-3.9h1v5.6h-.7v-4.7l-1.6,4.7h-.7l-1.6-4.7v4.7h-.9Z"/>
                        <path class="cls-1" d="M30.9,50.2h.7c0,.2,0,.5.2.6.1.2.3.3.6.5.2,0,.6.1.8.1s.6,0,.8-.1.3-.2.5-.3c0-.1.1-.3.1-.5s0-.3-.1-.5c0-.1-.2-.2-.5-.3-.1,0-.5-.1-1-.2s-.9-.2-1-.3c-.2-.1-.5-.3-.6-.6s-.2-.5-.2-.7,0-.6.2-.8c.1-.2.3-.5.7-.6s.7-.2,1-.2.8,0,1.1.2c.3.1.6.3.7.6s.2.6.2.9h-.7c0-.3-.1-.6-.3-.8s-.6-.2-.9-.2-.8,0-1,.2c-.2.1-.3.3-.3.6s0,.3.2.5c.1.1.5.2,1.1.3.6.1,1,.2,1.3.3.3.1.6.3.7.6s.2.5.2.8,0,.6-.2.8c-.1.2-.5.5-.7.6-.3.1-.7.2-1,.2s-.9,0-1.3-.2c-.3-.1-.6-.3-.8-.7s-.3-.6-.3-1v.3Z"/>
                        <path class="cls-1" d="M37.7,51.5v.6h-.5c-.2,0-.5,0-.6-.1l-.3-.3v-3.1h-.5v-.6h.5v-1l.7-.5v1.4h.7v.6h-.7v2.7h.1c0,.1.1.1.2.1h.3v.2Z"/>
                        <path class="cls-1" d="M41,52v-.6c-.3.5-.7.7-1.3.7s-.5,0-.7-.1c-.2,0-.3-.2-.5-.3,0-.1-.1-.3-.2-.5v-3.2h.7v3c0,.2.1.3.2.5s.3.1.6.1.3,0,.6-.1c.2,0,.3-.2.3-.5v-3h.7v4h-.6.1Z"/>
                        <path class="cls-1" d="M45.4,52v-.5c-.2.5-.7.6-1.1.6s-.6,0-.9-.2c-.2-.2-.5-.5-.6-.7-.1-.3-.2-.7-.2-1.1s0-.8.2-1.1c.1-.3.3-.6.6-.8s.6-.2.9-.2.5,0,.7.1c.2,0,.3.2.5.5v-1.9h.7v5.6h-.7ZM43.2,50c0,.6,0,.9.3,1.1s.5.3.8.3.6-.1.8-.3.3-.6.3-1.1,0-.9-.3-1.3-.5-.3-.8-.3-.6.1-.8.3-.3.7-.3,1.1h0Z"/>
                        <path class="cls-1" d="M49.8,50.8h.7c0,.5-.3.8-.6,1-.3.2-.7.3-1.1.3s-1-.2-1.4-.6-.6-.9-.6-1.5.2-1.3.6-1.6c.3-.3.8-.6,1.4-.6s1,.2,1.4.6.5.9.5,1.6,0,0,0,.2h-3c0,.5.1.8.3,1s.5.3.8.3.5,0,.7-.2c.2-.1.3-.3.5-.7h-.1ZM47.5,49.7h2.3c0-.3-.1-.6-.2-.8-.2-.2-.5-.3-.8-.3s-.6,0-.8.3c-.2.2-.3.5-.3.8h-.1Z"/>
                        <path class="cls-1" d="M51.3,52v-4h.6v.6c.3-.5.7-.7,1.3-.7s.5,0,.7.1.3.2.5.3c0,.1.2.3.2.5v3.2h-.7v-3c0-.1-.1-.2-.2-.3-.1,0-.3-.1-.5-.1-.3,0-.6,0-.8.2s-.3.6-.3,1v2.2s-.7,0-.7,0Z"/>
                        <path class="cls-1" d="M57.1,51.5v.6h-.5c-.2,0-.5,0-.6-.1l-.3-.3v-3.1h-.5v-.6h.5v-1l.7-.5v1.4h.7v.6h-.7v2.7h.1c0,.1.1.1.2.1h.3v.2Z"/>
                        <path class="cls-1" d="M57.5,50.8h.7c0,.1.1.3.3.6.2.1.5.2.7.2s.6,0,.7-.2c.1-.1.2-.2.2-.5s0-.2-.2-.3c0,0-.3-.1-.7-.2-.5-.1-.8-.2-1-.3s-.3-.2-.5-.3c0-.1-.1-.3-.1-.6s0-.3.1-.5c0-.1.2-.2.3-.3,0,0,.2-.1.5-.2h.6c.3,0,.6,0,.8.1.2,0,.5.2.6.3,0,.1.2.3.2.6h-.7c0-.1-.1-.2-.2-.3-.1-.1-.3-.2-.6-.2s-.6,0-.7.1-.2.2-.2.3v.2l.2.2s.2,0,.6.2c.5.1.8.2,1,.3.2,0,.3.2.5.3,0,.1.1.3.1.6s0,.5-.2.7c-.1.2-.3.3-.6.5-.2,0-.6.1-.8.1-.6,0-.9,0-1.1-.3s-.5-.6-.6-.9h.1Z"/>
                      </g>
                    </g>
                  </g>
                  <g class="cls-5">
                    <g class="cls-5">
                      <g class="cls-5">
                        <path class="cls-1" d="M236.8,34v-8h2.4l1.5,5.5,1.4-5.5h2.4v8h-1.5v-6.4l-1.6,6.4h-1.6l-1.6-6.4v6.4h-1.5.1Z"/>
                        <path class="cls-1" d="M249.6,32.2l1.5.2c-.2.6-.5,1-.9,1.3-.5.3-.9.5-1.6.5-1,0-1.7-.3-2.2-1-.3-.6-.6-1.2-.6-2s.2-1.7.8-2.3c.5-.6,1.2-.8,2-.8s1.5.2,2.1.8.7,1.5.7,2.7h-3.8c0,.5.1.8.3,1,.2.2.6.3.9.3s.5,0,.6-.2c.1-.1.2-.3.3-.6h-.1ZM249.8,30.7c0-.5-.1-.8-.3-1-.2-.2-.5-.3-.8-.3s-.6.1-.8.3c-.2.2-.3.6-.3,1h2.3Z"/>
                        <path class="cls-1" d="M257.9,34h-1.4v-.8c-.2.3-.5.6-.8.7-.3.1-.7.2-.9.2-.7,0-1.3-.2-1.7-.8s-.7-1.3-.7-2.2.2-1.7.7-2.2c.5-.5,1-.8,1.7-.8s1.2.2,1.7.8v-2.9h1.5v8h-.1ZM253.7,31c0,.6,0,1,.2,1.4.2.3.6.6,1,.6s.7-.1.9-.5c.2-.3.3-.8.3-1.4s-.1-1.2-.3-1.4c-.2-.3-.6-.5-.9-.5s-.7.1-.9.5-.3.7-.3,1.3Z"/>
                        <path class="cls-1" d="M259.4,27.4v-1.4h1.5v1.4h-1.5ZM259.4,34v-5.8h1.5v5.8h-1.5Z"/>
                        <path class="cls-1" d="M266.4,34v-.9c-.2.3-.5.6-.8.7-.3.2-.7.2-1,.2s-.7,0-1-.2c-.3-.1-.6-.5-.7-.7s-.2-.7-.2-1.3v-3.7h1.5v4.2c0,.2.1.3.3.5.1,0,.3.1.6.1s.5,0,.7-.2c.2-.1.3-.3.5-.6v-4.1h1.5v5.8h-1.4v.2Z"/>
                        <path class="cls-1" d="M269.3,28.2h1.4v.8c.5-.6,1.2-.9,1.9-.9s.7,0,.9.2c.2.1.5.3.7.7.2-.3.6-.6.8-.7.3-.1.6-.2.9-.2s.8,0,1,.2c.3.2.5.5.7.8,0,.2.1.7.1,1.2v3.7h-1.5v-3.4c0-.6,0-.9-.1-1.2s-.3-.3-.7-.3-.5,0-.6.2c-.2.1-.3.3-.5.6,0,.2-.1.7-.1,1.2v2.8h-1.5v-4.3c0-.1-.1-.2-.2-.3,0,0-.2-.1-.5-.1s-.5,0-.7.2c-.2.1-.3.3-.5.6,0,.2-.1.7-.1,1.2v2.8h-1.5v-5.8h0Z"/>
                      </g>
                    </g>
                  </g>
                  <g class="cls-5">
                    <g class="cls-5">
                      <g class="cls-5">
                        <path class="cls-1" d="M227,48.5v-5.7h.7v5.7h-.7Z"/>
                        <path class="cls-1" d="M229,48.5v-4.1h.6v.6c.3-.5.7-.7,1.3-.7s.5,0,.7.1c.2,0,.3.2.5.3,0,.1.2.3.2.5v3.3h-.7v-3c0-.1-.1-.2-.2-.3-.1,0-.3-.1-.5-.1-.3,0-.6,0-.8.2s-.3.6-.3,1v2.2s-.7,0-.7,0Z"/>
                        <path class="cls-1" d="M233.1,46.8v-.7h2.1v.7h-2.1Z"/>
                        <path class="cls-1" d="M236.1,48.5v-5.7h2.9c.2,0,.5.1.7.2.2.1.3.3.5.6s.1.5.1.8-.1.9-.5,1.3c-.3.3-.8.5-1.6.5h-1.4v2.3h-.7ZM236.9,45.6h1.5c.5,0,.8,0,1-.2s.3-.5.3-.8,0-.5-.2-.6c-.1-.1-.2-.2-.5-.3h-2.1v2h-.1Z"/>
                        <path class="cls-1" d="M244.1,47.2h.7c0,.5-.3.8-.6,1-.3.2-.7.3-1.2.3s-1-.2-1.4-.6-.6-.9-.6-1.5.2-1.3.6-1.6c.3-.3.8-.6,1.4-.6s1,.2,1.4.6.5.9.5,1.6,0,0,0,.2h-3c0,.5.1.8.3,1s.5.3.8.3.5,0,.7-.2c.2-.1.3-.3.5-.7h-.1ZM241.8,46h2.3c0-.3-.1-.6-.2-.8-.2-.2-.5-.3-.8-.3s-.6,0-.8.3-.3.5-.3.8h-.1Z"/>
                        <path class="cls-1" d="M245.6,48.5v-4.1h.6v.6c.1-.3.3-.5.5-.6s.2-.1.5-.1.5,0,.7.2l-.2.7c-.1,0-.3-.1-.5-.1s-.2,0-.5.1c-.1,0-.2.2-.2.3v2.9h-.8Z"/>
                        <path class="cls-1" d="M248.1,47.3h.7c0,.1.1.3.3.6.2.1.5.2.7.2s.6,0,.7-.2c.1-.1.2-.2.2-.5s0-.2-.2-.3c0,0-.3-.1-.7-.2-.5-.1-.8-.2-1-.3-.2,0-.3-.2-.5-.3,0-.1-.1-.3-.1-.6s0-.3.1-.5.2-.2.3-.3c0,0,.2-.1.5-.2h.6c.3,0,.6,0,.8.1s.5.2.6.3c0,.1.2.3.2.6h-.7c0-.1-.1-.2-.2-.3-.1-.1-.3-.2-.6-.2s-.6,0-.7.1-.2.2-.2.3v.2s.1.1.2.2c0,0,.2,0,.6.2.5.1.8.2,1,.3.2,0,.3.2.5.3,0,.1.1.3.1.6s0,.5-.2.7c-.1.2-.3.3-.6.5-.2,0-.6.1-.8.1-.6,0-.9,0-1.2-.3s-.5-.6-.6-.9h.1Z"/>
                        <path class="cls-1" d="M252,46.5c0-.8.2-1.3.6-1.7.3-.3.8-.5,1.3-.5s1,.2,1.4.6c.3.3.6.9.6,1.5s0,.9-.2,1.3c-.1.3-.3.6-.7.7-.3.1-.6.2-1,.2s-1-.2-1.4-.6c-.3-.3-.6-.9-.6-1.6h.1ZM252.7,46.5c0,.6,0,.9.3,1.2.2.2.5.3.8.3s.6-.1.8-.3.3-.7.3-1.2,0-.9-.3-1.2c-.2-.2-.5-.3-.8-.3s-.6.1-.8.3-.3.7-.3,1.2Z"/>
                        <path class="cls-1" d="M256.7,48.5v-4.1h.6v.6c.3-.5.7-.7,1.3-.7s.5,0,.7.1c.2,0,.3.2.5.3s.2.3.2.5v3.3h-.7v-3c0-.1-.1-.2-.2-.3-.1,0-.3-.1-.5-.1-.3,0-.6,0-.8.2s-.3.6-.3,1v2.2s-.7,0-.7,0Z"/>
                        <path class="cls-1" d="M261.2,48.5v-.8h.8v.8c0,.2,0,.6-.1.7,0,.2-.2.3-.5.5l-.2-.3c.1,0,.2-.1.3-.2v-.6h-.3Z"/>
                        <path class="cls-1" d="M265.3,45.8c0-.9.2-1.6.8-2.2.5-.6,1.2-.8,2-.8s1,.1,1.4.3c.5.2.7.6.9,1,.2.5.3.9.3,1.5s0,1-.3,1.5-.6.8-.9,1-.9.3-1.4.3-1-.1-1.4-.3c-.5-.2-.7-.6-.9-1s-.3-.9-.3-1.4h-.1ZM266.1,45.8c0,.7.2,1.2.6,1.6s.8.6,1.4.6,1-.2,1.4-.6.6-.9.6-1.7,0-.8-.2-1.2c-.1-.3-.3-.6-.7-.8s-.6-.2-1-.2-.9.2-1.4.6c-.3.3-.6.9-.6,1.9h0Z"/>
                        <path class="cls-1" d="M271.6,48.5v-4.1h.6v.6c.3-.5.7-.7,1.3-.7s.5,0,.7.1c.2,0,.3.2.5.3s.2.3.2.5v3.3h-.7v-3c0-.1-.1-.2-.2-.3-.1,0-.3-.1-.5-.1-.3,0-.6,0-.8.2s-.3.6-.3,1v2.2s-.7,0-.7,0Z"/>
                        <path class="cls-1" d="M276,48.5v-5.7h.7v5.7h-.7Z"/>
                        <path class="cls-1" d="M277.8,43.7v-.8h.7v.8h-.7ZM277.8,48.5v-4.1h.7v4.1h-.7Z"/>
                        <path class="cls-1" d="M279.5,48.5v-4.1h.6v.6c.3-.5.7-.7,1.3-.7s.5,0,.7.1c.2,0,.3.2.5.3,0,.1.2.3.2.5v3.3h-.7v-3c0-.1-.1-.2-.2-.3-.1,0-.3-.1-.5-.1-.3,0-.6,0-.8.2s-.3.6-.3,1v2.2s-.7,0-.7,0Z"/>
                        <path class="cls-1" d="M286.7,47.2h.7c0,.5-.3.8-.6,1s-.7.3-1.2.3-1-.2-1.4-.6c-.3-.3-.6-.9-.6-1.5s.2-1.3.6-1.6c.3-.3.8-.6,1.4-.6s1,.2,1.4.6c.3.3.5.9.5,1.6s0,0,0,.2h-3c0,.5.1.8.3,1s.5.3.8.3.5,0,.7-.2c.2-.1.3-.3.5-.7h-.1ZM284.5,46h2.3c0-.3-.1-.6-.2-.8-.2-.2-.5-.3-.8-.3s-.6,0-.8.3c-.2.2-.3.5-.3.8h-.1Z"/>
                      </g>
                    </g>
                    <g class="cls-5">
                      <g class="cls-5">
                        <path class="cls-1" d="M242.3,57.8c0-.8.2-1.3.6-1.7.3-.3.8-.5,1.3-.5s1,.2,1.4.6.6.9.6,1.5,0,.9-.2,1.3c-.1.3-.3.6-.7.7s-.6.2-1,.2-1-.2-1.4-.6-.6-.9-.6-1.6h.1ZM243,57.8c0,.6,0,.9.3,1.2.2.2.5.3.8.3s.6-.1.8-.3.3-.7.3-1.2,0-.9-.3-1.2c-.2-.2-.5-.3-.8-.3s-.6.1-.8.3-.3.7-.3,1.2Z"/>
                        <path class="cls-1" d="M246.9,59.8v-4.1h.6v.6c.1-.3.3-.5.5-.6s.2-.1.5-.1.5,0,.7.2l-.2.7c-.1,0-.3-.1-.5-.1s-.2,0-.5.1c-.1,0-.2.2-.2.3v2.9h-.8Z"/>
                        <path class="cls-1" d="M251.8,59.8v-5.7h.7v2.3h2.9v-2.3h.7v5.7h-.7v-2.7h-2.9v2.7h-.7Z"/>
                        <path class="cls-1" d="M257.4,61.4v-.7h.7s.1-.1.2-.2c0,0,0-.2.2-.5h0c0-.1-1.5-4.2-1.5-4.2h.7l.8,2.3c0,.3.2.6.3.9,0-.3.2-.6.2-.9l.9-2.4h.7l-1.5,4.2c-.1.5-.3.8-.3.9-.1.2-.2.3-.5.5-.1,0-.3.1-.6.1h-.5Z"/>
                        <path class="cls-1" d="M262,59.8h-.7v-5.7h.7v2c.3-.3.7-.6,1.2-.6s.5,0,.7.1c.2,0,.5.2.6.5s.2.3.3.7c0,.2.1.6.1.8,0,.7-.1,1.3-.5,1.6s-.8.6-1.3.6-.8-.2-1.2-.6v.5h0ZM262,57.7c0,.5,0,.8.2,1,.2.3.5.6.9.6s.6-.1.8-.3.3-.7.3-1.2,0-.9-.3-1.2c-.2-.2-.5-.3-.8-.3s-.6.1-.8.3-.3.7-.3,1.2h0Z"/>
                        <path class="cls-1" d="M265.8,59.8v-4.1h.6v.6c.1-.3.3-.5.5-.6s.2-.1.5-.1.5,0,.7.2l-.2.7c-.1,0-.3-.1-.5-.1s-.2,0-.5.1c-.1,0-.2.2-.2.3v2.9h-.8Z"/>
                        <path class="cls-1" d="M268.5,55v-.8h.7v.8h-.7ZM268.5,59.8v-4.1h.7v4.1h-.7Z"/>
                        <path class="cls-1" d="M272.9,59.8v-.5c-.2.5-.7.6-1.2.6s-.6,0-.9-.2c-.2-.2-.5-.5-.6-.7-.1-.3-.2-.7-.2-1.2s0-.8.2-1.2c.1-.3.3-.6.6-.8s.6-.2.9-.2.5,0,.7.1c.2,0,.3.2.5.5v-2h.7v5.7h-.7ZM270.7,57.8c0,.6,0,.9.3,1.2s.5.3.8.3.6-.1.8-.3.3-.6.3-1.2,0-.9-.3-1.3c-.2-.2-.5-.3-.8-.3s-.6.1-.8.3-.3.7-.3,1.2h0Z"/>
                      </g>
                    </g>
                  </g>
                  <g class="cls-5">
                    <g class="cls-5">
                      <g class="cls-5">
                        <path class="cls-1" d="M18,234.4v-8.4h1.7v6.9h4.2v1.5h-5.9Z"/>
                        <path class="cls-1" d="M26.3,230.1l-1.5-.2c.1-.6.5-1,.8-1.3s1-.5,1.8-.5,1.2,0,1.6.2.6.4.7.6.2.7.2,1.5v3.1c0,.2.1.5.2.8h-1.6s0-.2-.1-.5v-.2c-.2.2-.6.5-.8.6-.4.1-.6.2-1,.2-.6,0-1.1-.1-1.5-.5s-.5-.7-.5-1.3,0-.6.2-1,.4-.5.7-.6c.2-.1.7-.2,1.3-.4.7-.1,1.3-.2,1.6-.4h0c0-.5,0-.7-.2-.8s-.5-.2-.8-.2-.5,0-.7.1c-.1,0-.2.4-.4.6h-.2ZM28.5,231.5c-.2,0-.5.1-1,.2-.5,0-.7.2-.8.2-.2.1-.4.4-.4.6s0,.4.2.6c.1.1.4.2.6.2s.6,0,.8-.2c.2-.1.4-.4.4-.5v-1.1h.1Z"/>
                        <path class="cls-1" d="M37.2,234.4h-1.6v-4.5c0-.2-.1-.4-.4-.5-.1,0-.4-.1-.6-.1s-.5,0-.7.2c-.2.1-.4.4-.5.6,0,.2-.1.7-.1,1.5v2.8h-1.6v-6.1h1.5v.8c.5-.7,1.2-1.1,2.1-1.1s.7,0,1,.2c.2.1.5.2.7.5.1.2.2.5.4.7v4.8h-.1Z"/>
                        <path class="cls-1" d="M38.7,234.7l1.8.2c0,.2,0,.4.2.5.1,0,.4.1.7.1s.7,0,1-.2c.1,0,.2-.2.4-.4v-1.6c-.5.6-1.1,1-1.8,1s-1.5-.4-1.9-1.1c-.4-.6-.6-1.2-.6-2.1s.2-1.8.7-2.3,1.1-.8,1.8-.8,1.3.4,1.8,1v-.8h1.5v5.4c0,.7,0,1.2-.1,1.6,0,.4-.2.6-.5.8s-.5.4-.8.5c-.4,0-.8.1-1.3.1-1.1,0-1.8-.1-2.2-.5s-.6-.8-.6-1.3,0,0,0-.2h0ZM40.1,231.2c0,.6.1,1.1.4,1.5.2.2.6.5,1,.5s.7-.1,1-.5c.2-.4.4-.7.4-1.3s-.1-1.1-.4-1.5-.6-.5-1-.5-.7.1-1,.5c-.2.2-.4.7-.4,1.3Z"/>
                        <path class="cls-1" d="M50,234.4v-1c-.2.4-.5.6-.8.7-.4.2-.7.2-1.1.2s-.7,0-1.1-.2c-.4-.1-.6-.5-.7-.7s-.2-.7-.2-1.3v-3.9h1.6v4.4c0,.2.1.4.4.5.1,0,.4.1.6.1s.5,0,.7-.2c.2-.1.4-.4.5-.6v-4.2h1.6v6.1h-1.5v.2Z"/>
                        <path class="cls-1" d="M54.4,230.1l-1.5-.2c.1-.6.5-1,.8-1.3s1-.5,1.8-.5,1.2,0,1.6.2.6.4.7.6.2.7.2,1.5v3.1c0,.2.1.5.2.8h-1.6s0-.2-.1-.5v-.2c-.2.2-.6.5-.8.6-.4.1-.6.2-1,.2-.6,0-1.1-.1-1.5-.5s-.5-.7-.5-1.3,0-.6.2-1,.4-.5.7-.6c.2-.1.7-.2,1.3-.4.7-.1,1.3-.2,1.6-.4h0c0-.5,0-.7-.2-.8s-.5-.2-.8-.2-.5,0-.7.1c-.1,0-.2.4-.4.6h-.2ZM56.6,231.5c-.2,0-.5.1-1,.2-.5,0-.7.2-.8.2-.2.1-.4.4-.4.6s0,.4.2.6c.1.1.4.2.6.2s.6,0,.8-.2c.2-.1.4-.4.4-.5v-1.1h.1Z"/>
                        <path class="cls-1" d="M59.6,234.7l1.8.2c0,.2,0,.4.2.5.1,0,.4.1.7.1s.7,0,1-.2c.1,0,.2-.2.4-.4v-1.6c-.5.6-1.1,1-1.8,1s-1.5-.4-1.9-1.1c-.4-.6-.6-1.2-.6-2.1s.2-1.8.7-2.3,1.1-.8,1.8-.8,1.3.4,1.8,1v-.8h1.5v5.4c0,.7,0,1.2-.1,1.6,0,.4-.2.6-.5.8s-.5.4-.8.5c-.4,0-.8.1-1.3.1-1.1,0-1.8-.1-2.2-.5s-.6-.8-.6-1.3,0,0,0-.2h0ZM61.1,231.2c0,.6.1,1.1.4,1.5.2.2.6.5,1,.5s.7-.1,1-.5c.2-.4.4-.7.4-1.3s-.1-1.1-.4-1.5-.6-.5-1-.5-.7.1-1,.5c-.2.2-.4.7-.4,1.3Z"/>
                        <path class="cls-1" d="M70.4,232.4l1.6.2c-.2.6-.5,1.1-1,1.3-.5.4-1,.5-1.7.5-1.1,0-1.8-.4-2.3-1.1-.4-.6-.6-1.2-.6-2.1s.2-1.8.8-2.4c.5-.6,1.2-.8,2.1-.8s1.6.2,2.2.8.7,1.6.7,2.8h-4c0,.5.1.8.4,1.1s.6.4,1,.4.5,0,.6-.2c.1-.1.2-.4.4-.6h-.1ZM70.5,230.9c0-.5-.1-.8-.4-1.1-.2-.2-.5-.4-.8-.4s-.6.1-.8.4-.4.6-.4,1.1h2.4Z"/>
                      </g>
                    </g>
                  </g>
                  <g class="cls-5">
                    <g class="cls-5">
                      <g class="cls-5">
                        <path class="cls-1" d="M18.1,250.4v-5.9h3.1c.4,0,.6.2.8.4.4.2.5.6.7,1,.1.4.2.8.2,1.5s0,.8-.1,1.2-.2.6-.4.8c-.1.2-.4.4-.5.5s-.5.2-.7.2h-3.1v.4ZM18.9,249.7h2.2c.2,0,.4-.1.5-.4.2-.2.4-.5.5-.7,0-.4.1-.7.1-1.1s0-1.1-.4-1.5c-.2-.4-.5-.6-.7-.6h-2.2v4.5-.2Z"/>
                        <path class="cls-1" d="M26.9,249.1h.7c0,.5-.4.8-.6,1.1-.4.2-.7.4-1.2.4s-1.1-.2-1.5-.6c-.4-.4-.6-1-.6-1.6s.2-1.3.6-1.7c.4-.4.8-.6,1.5-.6s1.1.2,1.5.6c.4.4.5,1,.5,1.7s0,0,0,.2h-3.1c0,.5.1.8.4,1.1.2.2.5.4.8.4s.5,0,.7-.2c.2-.1.4-.4.5-.7h-.1ZM24.5,247.9h2.4c0-.4-.1-.6-.2-.8-.2-.2-.5-.4-.8-.4s-.6,0-.8.4c-.2.2-.4.5-.4.8h-.1Z"/>
                        <path class="cls-1" d="M31.3,248.8h.7c0,.6-.2,1-.6,1.2s-.7.4-1.2.4-1.1-.2-1.5-.6-.5-1-.5-1.7,0-.8.2-1.2c.1-.4.4-.6.7-.7s.6-.2,1-.2.8,0,1.1.4c.2.2.5.6.6,1h-.7c0-.1-.2-.4-.4-.5-.1-.1-.4-.2-.6-.2-.4,0-.6.1-.8.4s-.4.7-.4,1.2,0,1,.4,1.2c.2.2.5.4.8.4s.5,0,.7-.2c.2-.1.4-.5.4-.8v.2Z"/>
                        <path class="cls-1" d="M32.6,245.3v-.8h.7v.8s-.7,0-.7,0ZM32.6,250.4v-4.2h.7v4.2s-.7,0-.7,0Z"/>
                        <path class="cls-1" d="M37.2,250.4v-.5c-.2.5-.7.6-1.2.6s-.6,0-1-.2c-.2-.2-.5-.5-.6-.7-.1-.4-.2-.7-.2-1.2s0-.8.2-1.2c.1-.4.4-.6.6-.8s.6-.2,1-.2.5,0,.7.1c.2,0,.4.2.5.5v-2.1h.7v5.9h-.7ZM35,248.2c0,.6,0,1,.4,1.2s.5.4.8.4.6-.1.8-.4.4-.6.4-1.2,0-1-.4-1.3c-.2-.2-.5-.4-.8-.4s-.6.1-.8.4-.4.7-.4,1.2h0Z"/>
                        <path class="cls-1" d="M41.9,249.1h.7c0,.5-.4.8-.6,1.1-.4.2-.7.4-1.2.4s-1.1-.2-1.5-.6-.6-1-.6-1.6.2-1.3.6-1.7c.4-.4.8-.6,1.5-.6s1.1.2,1.5.6.5,1,.5,1.7,0,0,0,.2h-3.1c0,.5.1.8.4,1.1s.5.4.8.4.5,0,.7-.2c.2-.1.4-.4.5-.7h-.1ZM39.6,247.9h2.4c0-.4-.1-.6-.2-.8-.2-.2-.5-.4-.8-.4s-.6,0-.8.4c-.2.2-.4.5-.4.8h-.1Z"/>
                        <path class="cls-1" d="M46.4,250.4v-.5c-.2.5-.7.6-1.2.6s-.6,0-1-.2c-.2-.2-.5-.5-.6-.7-.1-.4-.2-.7-.2-1.2s0-.8.2-1.2c.1-.4.4-.6.6-.8s.6-.2,1-.2.5,0,.7.1c.2,0,.4.2.5.5v-2.1h.7v5.9h-.7ZM44.1,248.2c0,.6,0,1,.4,1.2s.5.4.8.4.6-.1.8-.4.4-.6.4-1.2,0-1-.4-1.3c-.2-.2-.5-.4-.8-.4s-.6.1-.8.4-.4.7-.4,1.2h0Z"/>
                        <path class="cls-1" d="M51.1,250.4h-.7v-5.9h.7v2.1c.4-.4.7-.6,1.2-.6s.5,0,.7.1c.2,0,.5.2.6.5s.2.4.4.7.1.6.1.8c0,.7-.1,1.3-.5,1.7s-.8.6-1.3.6-.8-.2-1.2-.6v.5h0ZM51.1,248.2c0,.5,0,.8.2,1.1.2.4.5.6,1,.6s.6-.1.8-.4.4-.7.4-1.2,0-1-.4-1.2c-.2-.2-.5-.4-.8-.4s-.6.1-.8.4-.4.7-.4,1.2h0Z"/>
                        <path class="cls-1" d="M55,252.1v-.7h.7s.1-.1.2-.2c0,0,0-.2.2-.5h0c0-.1-1.6-4.4-1.6-4.4h.7l.8,2.4c0,.4.2.6.4,1,0-.4.2-.6.2-1l1-2.5h.7l-1.6,4.4c-.1.5-.4.8-.4,1-.1.2-.2.4-.5.5s-.4.1-.6.1h-.5Z"/>
                        <path class="cls-1" d="M63.1,249.8v.6h-.5c-.2,0-.5,0-.6-.1s-.2-.2-.4-.4v-3.3h-.5v-.6h.5v-1.1l.7-.5v1.5h.7v.6h-.7v2.9h.1c0,.1.1.1.2.1h.4v.2Z"/>
                        <path class="cls-1" d="M63.7,250.4v-5.9h.7v2.1c.4-.4.7-.6,1.3-.6s.6,0,.8.2c.2.1.4.2.5.5,0,.2.1.5.1,1v2.7h-.7v-2.7c0-.4,0-.6-.2-.8-.1-.1-.4-.2-.6-.2s-.4,0-.6.1c-.2,0-.4.2-.4.5v3.1h-1Z"/>
                        <path class="cls-1" d="M71.2,249.1h.7c0,.5-.4.8-.6,1.1-.4.2-.7.4-1.2.4s-1.1-.2-1.5-.6-.6-1-.6-1.6.2-1.3.6-1.7c.4-.4.8-.6,1.5-.6s1.1.2,1.5.6.5,1,.5,1.7,0,0,0,.2h-3.1c0,.5.1.8.4,1.1s.5.4.8.4.5,0,.7-.2c.2-.1.4-.4.5-.7h-.1ZM68.9,247.9h2.4c0-.4-.1-.6-.2-.8-.2-.2-.5-.4-.8-.4s-.6,0-.8.4c-.2.2-.4.5-.4.8h-.1Z"/>
                      </g>
                    </g>
                    <g class="cls-5">
                      <g class="cls-5">
                        <path class="cls-1" d="M33,260.8h.7c0,.1.1.4.4.6.2.1.5.2.7.2s.6,0,.7-.2c.1-.1.2-.2.2-.5s0-.2-.2-.4l-.7-.2c-.5-.1-.8-.2-1.1-.4s-.4-.2-.5-.4c0-.1-.1-.4-.1-.6s0-.4.1-.5c0-.1.2-.2.4-.4l.5-.2h.6c.4,0,.6,0,.8.1.2,0,.5.2.6.4,0,.1.2.4.2.6h-.7c0-.1-.1-.2-.2-.4-.1-.1-.4-.2-.6-.2s-.6,0-.7.1-.2.2-.2.4v.2s.1.1.2.2c0,0,.2,0,.6.2.5.1.8.2,1.1.4.2,0,.4.2.5.4,0,.1.1.4.1.6s0,.5-.2.7c-.1.2-.4.4-.6.5-.2,0-.6.1-.8.1-.6,0-1,0-1.2-.4s-.5-.6-.6-1h.1Z"/>
                        <path class="cls-1" d="M39,261.5v.6h-.5c-.2,0-.5,0-.6-.1s-.2-.2-.4-.4v-3.3h-.5v-.6h.5v-1.1l.7-.5v1.5h.7v.6h-.7v2.9h.1c0,.1.1.1.2.1h.4v.2Z"/>
                        <path class="cls-1" d="M42.4,262.2v-.6c-.4.5-.7.7-1.3.7s-.5,0-.7-.1c-.2,0-.4-.2-.5-.4,0-.1-.1-.4-.2-.5v-3.4h.7v3.1c0,.2.1.4.2.5s.4.1.6.1.4,0,.6-.1c.2,0,.4-.2.4-.5v-3.1h.7v4.2h-.6.1Z"/>
                        <path class="cls-1" d="M47,262.2v-.5c-.2.5-.7.6-1.2.6s-.6,0-1-.2c-.2-.2-.5-.5-.6-.7-.1-.4-.2-.7-.2-1.2s0-.8.2-1.2c.1-.4.4-.6.6-.8s.6-.2,1-.2.5,0,.7.1c.2,0,.4.2.5.5v-2.1h.7v5.9h-.7ZM44.7,260c0,.6,0,1,.4,1.2s.5.4.8.4.6-.1.8-.4c.2-.2.4-.6.4-1.2s0-1-.4-1.3c-.2-.2-.5-.4-.8-.4s-.6.1-.8.4c-.2.2-.4.7-.4,1.2h0Z"/>
                        <path class="cls-1" d="M51.7,260.8h.7c0,.5-.4.8-.6,1.1-.4.2-.7.4-1.2.4s-1.1-.2-1.5-.6-.6-1-.6-1.6.2-1.3.6-1.7.8-.6,1.5-.6,1.1.2,1.5.6.5,1,.5,1.7,0,0,0,.2h-3.1c0,.5.1.8.4,1.1.2.2.5.4.8.4s.5,0,.7-.2c.2-.1.4-.4.5-.7h-.1ZM49.4,259.6h2.4c0-.4-.1-.6-.2-.8-.2-.2-.5-.4-.8-.4s-.6,0-.8.4c-.2.2-.4.5-.4.8h-.1Z"/>
                        <path class="cls-1" d="M53.4,262.2v-4.2h.6v.6c.4-.5.7-.7,1.3-.7s.5,0,.7.1.4.2.5.4c0,.1.2.4.2.5v3.4h-.7v-3.1c0-.1-.1-.2-.2-.4-.1,0-.4-.1-.5-.1-.4,0-.6,0-.8.2s-.4.6-.4,1.1v2.3h-.7Z"/>
                        <path class="cls-1" d="M59.6,261.5v.6h-.5c-.2,0-.5,0-.6-.1s-.2-.2-.4-.4v-3.3h-.5v-.6h.5v-1.1l.7-.5v1.5h.7v.6h-.7v2.9h.1c0,.1.1.1.2.1h.4v.2Z"/>
                      </g>
                    </g>
                  </g>
                  <g class="cls-5">
                    <g class="cls-5">
                      <g class="cls-5">
                        <path class="cls-1" d="M240.6,232h1.4c0,.3.2.7.5.9s.6.3,1,.3.8,0,1-.3c.2-.2.3-.4.3-.7s0-.3-.1-.4c0-.1-.3-.2-.5-.3-.2,0-.5-.2-1.1-.3-.8-.2-1.3-.4-1.6-.7s-.6-.8-.6-1.4,0-.7.3-1c.2-.3.5-.5.9-.7s.8-.2,1.4-.2c.9,0,1.5.2,2,.6.4.4.7.9.7,1.5h-1.4c0-.3-.2-.6-.4-.7s-.5-.2-.9-.2-.7,0-1,.3-.2.3-.2.4,0,.3.2.4c.2.1.6.3,1.3.5s1.2.3,1.5.5.6.4.8.7.3.7.3,1.1-.1.8-.3,1.1-.5.6-.9.8-.9.3-1.5.3c-.9,0-1.6-.2-2-.6-.5-.4-.8-1-.8-1.8h-.3Z"/>
                        <path class="cls-1" d="M247.4,228.6v-1.2h1.3v1.2h-1.3ZM247.4,234.3v-5h1.3v5h-1.3Z"/>
                        <path class="cls-1" d="M249.9,234.6l1.5.2c0,.2,0,.3.2.4.1,0,.3.1.6.1s.6,0,.8-.2c.1,0,.2-.2.3-.3v-1.3c-.4.5-.9.8-1.5.8s-1.2-.3-1.6-.9c-.3-.5-.5-1-.5-1.7s.2-1.5.6-1.9c.4-.4.9-.7,1.5-.7s1.1.3,1.5.8v-.7h1.2v4.5c0,.6,0,1-.1,1.3,0,.3-.2.5-.4.7s-.4.3-.7.4-.7.1-1.1.1c-.9,0-1.5-.1-1.8-.4-.4-.3-.5-.7-.5-1.1s0,0,0-.2h0ZM251.1,231.7c0,.5.1.9.3,1.2.2.2.5.4.8.4s.6-.1.8-.4c.2-.3.3-.6.3-1.1s-.1-.9-.3-1.2-.5-.4-.8-.4-.6.1-.8.4c-.2.2-.3.6-.3,1.1Z"/>
                        <path class="cls-1" d="M260.6,234.3h-1.3v-3.7c0-.2-.1-.3-.3-.4-.1,0-.3-.1-.5-.1s-.4,0-.6.2c-.2.1-.3.3-.4.5,0,.2-.1.6-.1,1.2v2.3h-1.3v-5h1.2v.7c.4-.6,1-.9,1.7-.9s.6,0,.8.2c.2.1.4.2.6.4s.2.4.3.6v4h-.1Z"/>
                        <path class="cls-1" d="M264.6,227.4h1.4v5c0,.3.2.5.4.7.2.2.5.3.9.3s.7,0,.9-.2c.2-.2.3-.4.4-.6v-5h1.4v3.6c0,.8,0,1.4-.1,1.8,0,.3-.2.6-.4.9-.2.2-.5.4-.8.6-.3.1-.8.2-1.3.2s-1.2,0-1.5-.2-.6-.4-.8-.6-.3-.5-.4-.8c0-.4-.1-1-.1-1.8v-3.9Z"/>
                        <path class="cls-1" d="M271.6,229.3h1.2v.7c.2-.3.4-.5.7-.6.3-.2.6-.2.9-.2.6,0,1.1.2,1.5.7s.6,1.1.6,1.9-.2,1.5-.6,2-.9.7-1.5.7-.5,0-.8-.2c-.2-.1-.5-.3-.7-.6v2.5h-1.3v-6.9h0ZM272.9,231.7c0,.6.1,1,.3,1.3.2.3.5.4.8.4s.6-.1.8-.4.3-.7.3-1.2-.1-.9-.3-1.2c-.2-.3-.5-.4-.8-.4s-.6.1-.8.4-.3.6-.3,1.1h0Z"/>
                      </g>
                    </g>
                  </g>
                  <g class="cls-5">
                    <g class="cls-5">
                      <g class="cls-5">
                        <path class="cls-1" d="M253.3,245.8v-4.9h3.5v.6h-2.9v1.5h2.7v.6h-2.7v1.7h3v.6h-3.6Z"/>
                        <path class="cls-1" d="M257.8,245.8v-3.5h.5v.5c.3-.4.6-.6,1.1-.6s.4,0,.6.1c.2,0,.3.2.4.3,0,.1.2.3.2.4v2.8h-.6v-2.6c0-.1-.1-.2-.2-.3-.1,0-.3-.1-.4-.1-.3,0-.5,0-.7.2s-.3.5-.3.9v1.9h-.6Z"/>
                        <path class="cls-1" d="M262.9,245.3v.5h-.4c-.2,0-.4,0-.5-.1-.1,0-.2-.2-.3-.3v-2.7h-.4v-.5h.4v-.9l.6-.4v1.2h.6v.5h-.6v2.4h.1c0,.1.1.1.2.1h.3v.2Z"/>
                        <path class="cls-1" d="M265.9,244.8h.6c0,.4-.3.7-.5.9s-.6.3-1,.3-.9-.2-1.2-.5c-.3-.3-.5-.8-.5-1.3s.2-1.1.5-1.4c.3-.3.7-.5,1.2-.5s.9.2,1.2.5c.3.3.4.8.4,1.4s0,0,0,.2h-2.6c0,.4.1.7.3.9.2.2.4.3.7.3s.4,0,.6-.2c.2-.1.3-.3.4-.6h-.1ZM263.9,243.8h2c0-.3-.1-.5-.2-.7-.2-.2-.4-.3-.7-.3s-.5,0-.7.3c-.2.2-.3.4-.3.7h0Z"/>
                        <path class="cls-1" d="M267.2,245.8v-3.5h.5v.5c.1-.3.3-.4.4-.5.1,0,.2-.1.4-.1s.4,0,.6.2l-.2.6c-.1,0-.3-.1-.4-.1s-.2,0-.4.1c-.1,0-.2.2-.2.3v2.5h-.7Z"/>
                      </g>
                    </g>
                    <g class="cls-5">
                      <g class="cls-5">
                        <path class="cls-1" d="M239.1,255.5v-4.9h1l1.2,3.4c.1.3.2.6.2.7,0-.2.1-.4.3-.8l1.2-3.4h.9v4.9h-.6v-4.1l-1.4,4.1h-.6l-1.4-4.1v4.1h-.8Z"/>
                        <path class="cls-1" d="M247,255.1c-.2.2-.4.3-.6.4-.2,0-.4.1-.7.1s-.7,0-.9-.3-.3-.4-.3-.7,0-.3.1-.5c0-.1.2-.3.3-.3s.3-.2.4-.2h.5c.5,0,.8-.1,1.1-.2v-.2c0-.2,0-.4-.2-.5s-.4-.2-.7-.2-.5,0-.6.1c-.1,0-.2.3-.3.5h-.6c0-.3.1-.5.3-.7.1-.2.3-.3.5-.4s.5-.1.8-.1.5,0,.7.1c.2,0,.3.2.4.3,0,.1.2.2.2.4v2.5c0,.1,0,.3.2.4h-.6c0-.1-.1-.3-.1-.4h.1ZM247,253.8c-.2,0-.5.2-1,.2s-.4,0-.5.1c-.1,0-.2.1-.2.2v.3c0,.2,0,.3.2.4.1.1.3.2.5.2s.4,0,.6-.2c.2-.1.3-.2.4-.4v-.8Z"/>
                        <path class="cls-1" d="M249.8,255v.5h-.4c-.2,0-.4,0-.5-.1-.1,0-.2-.2-.3-.3v-2.7h-.4v-.5h.4v-.9l.6-.4v1.2h.6v.5h-.6v2.4h.1c0,.1.1.1.2.1h.3v.2Z"/>
                        <path class="cls-1" d="M252.7,254.2h.6c0,.5-.2.8-.5,1s-.6.3-1,.3-.9-.2-1.2-.5-.4-.8-.4-1.4,0-.7.2-1c.1-.3.3-.5.6-.6s.5-.2.8-.2.7,0,.9.3c.2.2.4.5.5.8h-.6c0-.1-.2-.3-.3-.4-.1-.1-.3-.2-.5-.2-.3,0-.5.1-.7.3s-.3.6-.3,1,0,.8.3,1c.2.2.4.3.7.3s.4,0,.6-.2c.2-.1.3-.4.3-.7v.2Z"/>
                        <path class="cls-1" d="M253.8,255.5v-4.9h.6v1.7c.3-.3.6-.5,1.1-.5s.5,0,.7.2c.2.1.3.2.4.4,0,.2.1.4.1.8v2.2h-.6v-2.2c0-.3,0-.5-.2-.7s-.3-.2-.5-.2-.3,0-.5.1-.3.2-.3.4v2.6h-.8Z"/>
                        <path class="cls-1" d="M257.6,255.5v-3.5h.5v.5c.1-.2.3-.3.4-.4s.4-.2.6-.2.5,0,.6.2.3.3.4.5c.3-.4.6-.6,1.1-.6s.6,0,.8.3c.2.2.3.5.3.9v2.4h-.6v-2.7c0-.1-.1-.2-.2-.3h-.4c-.2,0-.5,0-.6.2s-.2.4-.2.8v2h-.6v-2.3c0-.3,0-.5-.1-.6s-.3-.2-.5-.2-.3,0-.5.1-.2.2-.3.4v2.5h-.7Z"/>
                        <path class="cls-1" d="M265.5,255.1c-.2.2-.4.3-.6.4-.2,0-.4.1-.7.1s-.7,0-.9-.3-.3-.4-.3-.7,0-.3.1-.5c0-.1.2-.3.3-.3s.3-.2.4-.2h.5c.5,0,.8-.1,1.1-.2v-.2c0-.2,0-.4-.2-.5s-.4-.2-.7-.2-.5,0-.6.1c-.1,0-.2.3-.3.5h-.6c0-.3.1-.5.3-.7.1-.2.3-.3.5-.4.2,0,.5-.1.8-.1s.5,0,.7.1c.2,0,.3.2.4.3,0,.1.2.2.2.4v2.5c0,.1,0,.3.2.4h-.6c0-.1-.1-.3-.1-.4h.1ZM265.5,253.8c-.2,0-.5.2-1,.2s-.4,0-.5.1c-.1,0-.2.1-.2.2v.3c0,.2,0,.3.2.4.1.1.3.2.5.2s.4,0,.6-.2c.2-.1.3-.2.4-.4v-.8Z"/>
                        <path class="cls-1" d="M267,255.5v-4.9h.6v2.8l1.4-1.4h.8l-1.3,1.3,1.5,2.2h-.7l-1.2-1.8-.4.4v1.4h-.7Z"/>
                        <path class="cls-1" d="M270.4,251.3v-.7h.6v.7h-.6ZM270.4,255.5v-3.5h.6v3.5h-.6Z"/>
                        <path class="cls-1" d="M271.9,255.5v-3.5h.5v.5c.3-.4.6-.6,1.1-.6s.4,0,.6.1c.2,0,.3.2.4.3,0,.1.2.3.2.4v2.8h-.6v-2.6c0-.1-.1-.2-.2-.3-.1,0-.3-.1-.4-.1-.3,0-.5,0-.7.2s-.3.5-.3.9v1.9h-.6Z"/>
                        <path class="cls-1" d="M275.6,255.9h.6c0,.3,0,.4.2.5.1.1.4.2.6.2s.5,0,.6-.2c.2-.1.3-.3.3-.5v-.8c-.3.3-.6.5-1,.5s-.9-.2-1.1-.5-.4-.8-.4-1.3,0-.6.2-.9c.1-.3.3-.5.5-.7s.5-.2.8-.2.8.2,1,.5v-.4h.6v3c0,.5,0,.9-.2,1.2-.1.2-.3.4-.5.5s-.5.2-.9.2-.8,0-1-.3c-.3-.2-.4-.5-.4-.9h0ZM276.1,253.8c0,.5,0,.8.3,1s.4.3.7.3.5-.1.7-.3c.2-.2.3-.5.3-1s0-.8-.3-1c-.2-.2-.4-.3-.7-.3s-.5.1-.7.3-.3.5-.3,1Z"/>
                      </g>
                    </g>
                    <g class="cls-5">
                      <g class="cls-5">
                        <path class="cls-1" d="M249.1,263.8h.6c0,.2,0,.4.2.5.1.2.3.3.5.4.2,0,.5.1.7.1s.5,0,.7-.1c.2,0,.3-.2.4-.3,0-.1.1-.3.1-.4s0-.3-.1-.4-.2-.2-.4-.3c-.1,0-.4-.1-.9-.2s-.8-.2-.9-.3c-.2-.1-.4-.3-.5-.5s-.2-.4-.2-.6,0-.5.2-.7c.1-.2.3-.4.6-.5s.6-.2.9-.2.7,0,1,.2c.3.1.5.3.6.5s.2.5.2.8h-.6c0-.3-.1-.5-.3-.7s-.5-.2-.8-.2-.7,0-.9.2c-.2.1-.3.3-.3.5s0,.3.2.4c.1.1.4.2,1,.3.5.1.9.2,1.1.3.3.1.5.3.6.5s.2.4.2.7,0,.5-.2.7c-.1.2-.4.4-.6.5-.3.1-.6.2-.9.2s-.8,0-1.1-.2c-.3-.1-.5-.3-.7-.6-.2-.3-.3-.5-.3-.9v.3Z"/>
                        <path class="cls-1" d="M253.8,266.8v-.6h.6s.1-.1.2-.2c0,0,0-.2.2-.4h0c0-.1-1.3-3.6-1.3-3.6h.6l.7,2c0,.3.2.5.3.8,0-.3.2-.5.2-.8l.8-2.1h.6l-1.3,3.6c-.1.4-.3.7-.3.8-.1.2-.2.3-.4.4s-.3.1-.5.1h-.4Z"/>
                        <path class="cls-1" d="M256.9,264.2h.6c0,.1.1.3.3.5.2.1.4.2.6.2s.5,0,.6-.2c.1-.1.2-.2.2-.4s0-.2-.2-.3c0,0-.3-.1-.6-.2-.4-.1-.7-.2-.9-.3s-.3-.2-.4-.3c0-.1-.1-.3-.1-.5s0-.3.1-.4c0-.1.2-.2.3-.3l.4-.2h.5c.3,0,.5,0,.7.1s.4.2.5.3c0,.1.2.3.2.5h-.6c0-.1-.1-.2-.2-.3s-.3-.2-.5-.2-.5,0-.6.1-.2.2-.2.3v.2s.1.1.2.2c0,0,.2,0,.5.2.4.1.7.2.9.3.2,0,.3.2.4.3,0,.1.1.3.1.5s0,.4-.2.6c-.1.2-.3.3-.5.4-.2,0-.5.1-.7.1-.5,0-.8,0-1-.3s-.4-.5-.5-.8h.1Z"/>
                        <path class="cls-1" d="M261.9,264.9v.5h-.4c-.2,0-.4,0-.5-.1l-.3-.3v-2.7h-.4v-.5h.4v-.9l.6-.4v1.2h.6v.5h-.6v2.4h.1c0,.1.1.1.2.1h.3v.2Z"/>
                        <path class="cls-1" d="M264.9,264.2h.6c0,.4-.3.7-.5.9-.3.2-.6.3-1,.3s-.9-.2-1.2-.5c-.3-.3-.5-.8-.5-1.3s.2-1.1.5-1.4.7-.5,1.2-.5.9.2,1.2.5c.3.3.4.8.4,1.4s0,0,0,.2h-2.6c0,.4.1.7.3.9s.4.3.7.3.4,0,.6-.2c.2-.1.3-.3.4-.6h-.1ZM262.9,263.2h2c0-.3-.1-.5-.2-.7-.2-.2-.4-.3-.7-.3s-.5,0-.7.3c-.2.2-.3.4-.3.7h0Z"/>
                        <path class="cls-1" d="M266.3,265.4v-3.5h.5v.5c.1-.2.3-.3.4-.4s.4-.2.6-.2.5,0,.6.2.3.3.4.5c.3-.4.6-.6,1.1-.6s.6,0,.8.3c.2.2.3.5.3.9v2.4h-.6v-2.7c0-.1-.1-.2-.2-.3h-.4c-.2,0-.5,0-.6.2-.2.2-.2.4-.2.8v2h-.6v-2.3c0-.3,0-.5-.1-.6s-.3-.2-.5-.2-.3,0-.5.1-.2.2-.3.4v2.5h-.7Z"/>
                      </g>
                    </g>
                  </g>
                </g>
              </g>
            </g>
          </g>
        </g>
      </g>
    </g>
  </g>
</svg>