<?xml version="1.0" encoding="UTF-8"?>
<svg id="Layer_2" xmlns="http://www.w3.org/2000/svg" xmlns:xlink="http://www.w3.org/1999/xlink" viewBox="0 0 209.17 179.13">
  <defs>
    <style>
      .cls-1 {
        fill: #ffca55;
      }

      .cls-1, .cls-2, .cls-3, .cls-4, .cls-5, .cls-6, .cls-7, .cls-8, .cls-9, .cls-10 {
        stroke: #231f20;
        stroke-miterlimit: 10;
        stroke-width: .5px;
      }

      .cls-2 {
        fill: #2f2244;
      }

      .cls-11 {
        clip-path: url(#clippath-1);
      }

      .cls-12 {
        fill: #d7e4f4;
      }

      .cls-13 {
        fill: #231f20;
      }

      .cls-3 {
        fill: #fff;
      }

      .cls-14, .cls-8 {
        fill: #ffc4a4;
      }

      .cls-15 {
        clip-path: url(#clippath-3);
      }

      .cls-4 {
        fill: #f0f5fa;
      }

      .cls-5 {
        fill: none;
      }

      .cls-16 {
        fill: #072140;
        opacity: .08;
      }

      .cls-6, .cls-17 {
        fill: #ff7a64;
      }

      .cls-7 {
        fill: #165db1;
      }

      .cls-18 {
        clip-path: url(#clippath-2);
      }

      .cls-19 {
        clip-path: url(#clippath);
      }

      .cls-9 {
        fill: #bbfff4;
      }

      .cls-10 {
        fill: #c2d7ef;
      }
    </style>
    <clipPath id="clippath">
      <path class="cls-5" d="M64.32,178.08c-10.71-6.07-10.66-4.15.01-10.18,5.67-.16,5.66,10.36-.01,10.18Z"/>
    </clipPath>
    <clipPath id="clippath-1">
      <path class="cls-5" d="M145.71,124.81c3.37.22,16.4.7,21.39.32,8.51-3.55-1.64-11.04-5.8-13.64-4.51-3.34-9.44-5.5-12.58,0l-5.93-.03,2.93,13.36Z"/>
    </clipPath>
    <clipPath id="clippath-2">
      <path class="cls-5" d="M151.47,134.55c3.37.22,16.4.7,21.39.32,8.51-3.55-1.64-11.04-5.8-13.64-4.51-3.34-9.44-5.5-12.58,0l-5.93-.03,2.93,13.36Z"/>
    </clipPath>
    <clipPath id="clippath-3">
      <path class="cls-5" d="M121.22,126.22l-21.78-55.97,4.84-1.94,21.78,55.97c-.16,1.23-4.07,2.49-4.84,1.94Z"/>
    </clipPath>
  </defs>
  <g id="Layer_1-2" data-name="Layer_1">
    <g>
      <path class="cls-16" d="M114.27,21.56h0c-1.67,1.16-3.53,1.98-5.48,2.42-1.95.44-3.98.52-5.98.19h0c-2.75-.44-5.49-.14-7.98.79-3.39,1.27-6.32,3.69-8.18,6.99h0c-.78,1.39-1.77,2.64-2.91,3.71-1.77,1.66-3.91,2.91-6.28,3.62h0c-1.57.47-3.03,1.17-4.34,2.06-3.93,2.67-6.52,7.05-6.84,11.96h0c-.12,1.78-.53,3.52-1.22,5.13-.88,2.06-2.19,3.93-3.88,5.46h0c-2.34,2.13-3.92,4.85-4.66,7.77-.8,3.16-.61,6.56.67,9.71h0c.76,1.89,1.14,3.88,1.14,5.88s-.38,3.99-1.14,5.88h0c-1.23,3.05-1.45,6.31-.75,9.37.7,3.06,2.31,5.91,4.74,8.12h0c1.5,1.37,2.71,3,3.58,4.8.87,1.8,1.39,3.76,1.52,5.79h0c.2,3.01,1.24,5.82,2.93,8.16,1.98,2.75,4.85,4.86,8.26,5.87h0c1.88.56,3.62,1.46,5.14,2.64,1.63,1.27,3.01,2.85,4.05,4.69h0c1.34,2.37,3.22,4.28,5.43,5.65,3.14,1.93,6.93,2.75,10.73,2.14h0c3.01-.48,6.07-.08,8.83,1.14.92.4,1.8.9,2.63,1.48h0c3.01,2.1,6.57,3.02,10.07,2.78,2.77-.19,5.49-1.12,7.87-2.78h0c.99-.69,2.05-1.26,3.16-1.7,2.61-1.04,5.48-1.37,8.3-.92h0c3.05.49,6.09.06,8.79-1.12,3.05-1.33,5.66-3.63,7.37-6.66h0c.74-1.32,1.67-2.51,2.74-3.55,1.8-1.75,4.01-3.05,6.45-3.78h0c2.86-.85,5.35-2.47,7.24-4.61,2.28-2.56,3.71-5.84,3.94-9.42h0c.12-1.81.55-3.57,1.25-5.2.88-2.03,2.18-3.87,3.85-5.39h0c2.56-2.33,4.21-5.36,4.84-8.6.57-2.92.31-6-.85-8.89h0c-.86-2.13-1.23-4.4-1.12-6.65.09-1.74.46-3.46,1.12-5.1h0c1.36-3.37,1.48-7.01.5-10.34-.8-2.69-2.32-5.18-4.49-7.15h0c-1.91-1.74-3.35-3.91-4.21-6.3-.49-1.37-.8-2.81-.89-4.29h0c-.25-3.88-1.92-7.43-4.55-10.06-1.81-1.82-4.07-3.2-6.64-3.96h0c-1.95-.58-3.75-1.53-5.31-2.77-1.56-1.24-2.88-2.79-3.88-4.56h0c-1.31-2.31-3.14-4.2-5.28-5.55-3.16-2-7.01-2.85-10.88-2.23h0c-2.46.39-4.95.2-7.27-.55-1.48-.47-2.89-1.17-4.19-2.07h0c-2.52-1.76-5.43-2.69-8.37-2.8-3.34-.13-6.7.81-9.57,2.8Z"/>
      <path class="cls-5" d="M70.51,76.58c-10.18-5.11-17.01,3.69-2.27,5.55,4.31.81,6.09.89,7.01-1.37.92-2.27-8.36-4.22-10.64-4.15-7.09,1.77,3.07,3.25,7.14,4.17"/>
      <g>
        <path class="cls-5" d="M34.49,133.16c-.08,12.25,5.77,12.25,5.69,0,.08-12.25-5.77-12.25-5.69,0Z"/>
        <path class="cls-5" d="M35.7,131.27c-10.03,7.03-6.65,11.8,3.29,4.64,10.03-7.03,6.65-11.8-3.29-4.64Z"/>
        <path class="cls-5" d="M38.86,131.12c-10-7.09-13.35-2.29-3.26,4.66,9.99,7.09,13.35,2.29,3.26-4.66Z"/>
        <path class="cls-5" d="M36.19,133.59c-.02,1.51,2.35,1.51,2.33,0,.02-1.51-2.35-1.51-2.33,0Z"/>
      </g>
      <g>
        <path class="cls-13" d="M73.6,113.23c.8,3.33,4.59,4.25,7.54,4.62.08,0,.18-.05.22-.12,1.78-3.78,3.68-7.51,5.46-11.3.07-.15.01-.31-.15-.37-2.4-.85-5.66-2.88-8.04-.89-1.69,1.41-1.09,3.8.74,4.72l.25-.43c-2.67-1.28-6.54.48-6.01,3.77.05.32.53.18.48-.13-.46-2.84,3.03-4.28,5.28-3.21.29.14.54-.29.25-.43-.82-.41-1.48-1.13-1.52-2.09s.53-1.72,1.32-2.14c2.29-1.21,4.98.55,7.11,1.31l-.15-.37c-.91,1.93-1.84,3.84-2.78,5.76-.47.96-.94,1.92-1.4,2.88-.25.52-.5,1.03-.75,1.55-.11.22-.21.44-.32.67-.14.31-.09.31-.43.26-2.62-.37-5.92-1.26-6.62-4.19-.08-.31-.56-.18-.48.13Z"/>
        <path class="cls-13" d="M73.57,112.12c-.54,2.31.02,4.48,1.98,5.91s4.26,1.84,6.49,2.14c.08.01.18-.05.22-.12,1.16-2.47,2.31-4.94,3.46-7.41.43-.93.86-1.86,1.3-2.79.16-.35.37-.64.31-1.02-.14-.87-.32-1.73-.48-2.59-.06-.32-.54-.18-.48.13l.35,1.85c.04.22.03.65.16.84.08.11.04-.13.03-.11-.03.04-.04.1-.07.15-.28.49-.48,1.04-.72,1.55-.42.91-.85,1.82-1.27,2.74-.94,2.02-1.88,4.03-2.82,6.04-.14.3-.12.23-.44.18-.23-.04-.47-.07-.7-.12-.52-.09-1.04-.2-1.55-.34-.94-.25-1.86-.57-2.71-1.04-.91-.51-1.74-1.2-2.24-2.13-.62-1.15-.59-2.48-.3-3.73.07-.31-.41-.45-.48-.13h0Z"/>
        <path class="cls-13" d="M82.65,107.13c-.22.46-.44.91-.68,1.36l.28-.11c-.08-.02-.16-.05-.24-.08-.03-.01.04.02.01,0,0,0-.02,0-.02-.01-.02,0-.03-.01-.05-.02-.04-.02-.07-.04-.11-.06-.06-.03-.11-.08-.17-.11.03.02.03.03,0,0-.01-.01-.02-.02-.04-.03-.02-.02-.05-.04-.07-.07-.02-.02-.04-.04-.06-.06,0,0,0-.01-.02-.02,0,0,.03.05.02.03,0-.01-.02-.02-.02-.03-.03-.04-.05-.09-.08-.14-.02-.04.02.06,0,.02,0-.01,0-.02-.01-.04,0-.02-.01-.05-.02-.07,0-.01,0-.02,0-.04,0-.04,0,0,0,.03,0-.02,0-.05,0-.07s0-.05,0-.07c0,0,0-.02,0-.03,0,.03-.01.07,0,.02,0-.04.02-.08.04-.12,0,0-.03.06,0,.02,0,0,0-.02.01-.03.01-.02.02-.04.03-.06,0,0,.01-.02.02-.03,0-.01-.04.05-.02.02.02-.02.03-.04.05-.05.02-.01.03-.03.05-.04.01-.01-.06.04-.02.02.01,0,.02-.02.03-.02.02-.01.04-.02.06-.03,0,0,.02,0,.03-.01.05-.03-.04.01-.01,0,.05-.02.09-.03.14-.04.01,0,.03,0,.04,0-.02,0-.06,0-.01,0,.03,0,.06,0,.08,0,.03,0,.06,0,.09,0,.02,0,.04,0,.05,0,0,0-.06,0-.03,0,0,0,.02,0,.03,0,.07.01.15.03.22.06.02,0,.04.01.06.02,0,0,.01,0,.02,0,.03.01-.04-.02-.01,0,.04.02.08.04.11.05.09.05.17.1.25.15.11.07.28.02.34-.09.07-.13.03-.26-.09-.34-.5-.35-1.22-.55-1.74-.12-.19.16-.3.39-.32.64-.02.27.09.53.26.74.24.31.62.49.98.59.1.03.23-.02.28-.11.24-.45.46-.9.68-1.36.06-.12.04-.28-.09-.34-.11-.06-.28-.04-.34.09h0Z"/>
        <path class="cls-13" d="M77.97,113.48c-.09-.11-.2-.27-.25-.38,0-.02-.04-.11-.05-.16,0-.02,0-.03,0-.05,0-.04,0,.06,0,0,0-.03,0-.06,0-.09,0-.06,0,.01,0-.02,0-.03.01-.05.02-.08,0-.02.04-.09,0-.03.01-.03.03-.05.04-.08,0-.01.05-.07.03-.05s.03-.03.04-.04c.02-.02.03-.03.05-.05.01-.01.02-.02.04-.03.01-.01-.03.02.01,0s.09-.06.14-.09c.03-.01.06-.03.08-.04.01,0,.06-.02,0,0,.02,0,.04-.02.06-.02.13-.05.26-.08.39-.1.02,0,.03,0,.05,0-.05,0,0,0,0,0,.04,0,.08,0,.12-.01.07,0,.14,0,.21,0s.14,0,.22.01c.02,0,.03,0,.05,0,.08,0-.03,0,.02,0,.04,0,.08.01.12.02.08.02.16.04.24.06.04.01.07.02.11.04.01,0,.03.01.04.02-.05-.02.02,0,.02.01.07.03.13.07.19.11.02,0,.03.02.05.03,0,0,.02.01.03.02-.02-.01-.02-.02,0,0,.03.02.06.05.09.08l-.04-.3c-.23.48-.4.99-.67,1.45-.03.05-.05.09-.08.14-.01.02-.03.04-.04.06,0,0-.05.07-.03.04-.03.04-.06.08-.1.11-.02.02-.03.03-.05.04-.04.04,0,0-.02.02s-.07.04-.1.06c.06-.03-.12.02-.04.01-.04,0-.08,0-.12,0,.05,0,0,0-.02,0-.03,0-.05-.01-.08-.02-.04-.01-.01,0-.06-.03-.03-.02-.06-.03-.09-.05-.06-.03-.11-.07-.16-.11-.17-.13-.31-.29-.45-.45-.09-.1-.26-.09-.35,0-.1.1-.09.25,0,.35.36.41.94,1,1.55.77.49-.19.73-.73.93-1.18.14-.32.27-.64.42-.95.05-.1.05-.22-.04-.3-.51-.49-1.28-.61-1.96-.51-.56.08-1.25.38-1.35,1.02-.07.44.17.84.44,1.16.09.1.26.09.35,0,.1-.1.09-.25,0-.35Z"/>
        <line class="cls-5" x1="81.14" y1="117.59" x2="82.04" y2="119.91"/>
      </g>
      <g>
        <path class="cls-13" d="M22.03,172.09c2.74,1.57,5.85.63,7.7-1.81s2.16-5.7.26-8.07c-1.64-2.05-4.68-2.87-7.02-1.66-2.13,1.1-3.51,3.45-3.9,5.76-.5,2.93.64,5.79,3.3,7.24.28.15.54-.28.25-.43-2.13-1.16-3.27-3.31-3.17-5.72.09-2.18,1.11-4.43,2.83-5.81,1.86-1.49,4.21-1.42,6.15-.1,2.49,1.69,2.9,4.86,1.56,7.44-.68,1.32-1.78,2.46-3.15,3.06-1.51.66-3.14.47-4.55-.34-.28-.16-.53.27-.25.43h0Z"/>
        <path class="cls-13" d="M27.57,170.69c.29-1.41.51-2.87.47-4.31-.02-.79-.1-1.72-.57-2.39-.33-.47-.86-.68-1.4-.46-.73.29-1.25,1.02-1.64,1.66-.82,1.33-1.35,2.84-1.79,4.34-.09.31.39.44.48.13.38-1.29.83-2.58,1.47-3.76.35-.65.8-1.39,1.43-1.79.2-.13.36-.19.56-.17.06,0-.03,0,.03,0,.02,0,.04.01.07.02.07.02.03,0,.11.05.09.05.12.08.21.19.04.05.13.2.18.3.06.13.11.27.15.42.11.39.16.8.19,1.21.08,1.48-.14,2.98-.44,4.43-.06.31.42.45.48.13h0Z"/>
        <path class="cls-13" d="M28.53,167.78c-1.77-.49-3.63-.69-5.33-1.41-.3-.12-.43.36-.13.48,1.71.72,3.56.92,5.33,1.41.31.09.44-.4.13-.48h0Z"/>
        <path class="cls-13" d="M22.73,162.57c-.11.63-.29,1.25-.56,1.83-.06.12-.03.27.09.34.11.06.29.03.34-.09.29-.62.5-1.27.61-1.95.02-.13-.04-.27-.17-.31-.12-.03-.28.04-.31.17h0Z"/>
        <path class="cls-13" d="M23.68,163.66c-.61-.27-1.23-.48-1.88-.62-.13-.03-.27.04-.31.17-.03.13.04.28.17.31.6.13,1.19.32,1.76.57.12.05.27.04.34-.09.06-.11.03-.29-.09-.34h0Z"/>
      </g>
      <g>
        <path class="cls-13" d="M26.14,81.22c-2.02-.12-4.03-.74-5.55-2.14-1.3-1.2-2.1-2.82-2.42-4.54-.65-3.51.6-7.43,3.28-9.8,3.04-2.68,7.89-2.83,11.11-.37,3.02,2.3,3.97,6.49,3.13,10.07-.89,3.8-3.87,6.76-7.88,6.87-.56.02-1.12-.02-1.67-.09-.32-.04-.32.46,0,.5,2.14.27,4.35-.08,6.16-1.29,1.61-1.08,2.77-2.69,3.46-4.49,1.38-3.63.85-8.16-1.87-11.04-2.92-3.1-8.05-3.66-11.62-1.39-3.24,2.06-4.97,6.07-4.74,9.85.25,4.03,2.86,7.32,6.87,8.15.57.12,1.16.18,1.74.22.32.02.32-.48,0-.5Z"/>
        <path class="cls-5" d="M30.72,62.96c.14.16-3.58,10.14-3.58,10.14l-9.13-3.11"/>
        <line class="cls-5" x1="27.14" y1="73.09" x2="19.43" y2="78.22"/>
        <path class="cls-13" d="M27.7,62.57c.63,1.41,1.03,2.9,1.41,4.39.08.31.56.18.48-.13-.4-1.53-.82-3.06-1.46-4.51-.13-.29-.56-.04-.43.25h0Z"/>
        <path class="cls-13" d="M25.33,62.8c.94,2.56,1.37,5.31,2.6,7.75.14.29.58.03.43-.25-1.21-2.4-1.63-5.12-2.55-7.63-.11-.3-.59-.17-.48.13h0Z"/>
        <path class="cls-13" d="M22.98,63.62c1.42,3.13,2.49,6.4,3.78,9.57.12.29.6.17.48-.13-1.31-3.22-2.4-6.53-3.83-9.69-.13-.29-.56-.04-.43.25h0Z"/>
        <path class="cls-13" d="M21.02,64.98c.95,2.48,2.08,4.9,3.22,7.3.14.29.57.04.43-.25-1.13-2.36-2.24-4.73-3.17-7.18-.11-.3-.6-.17-.48.13h0Z"/>
        <path class="cls-13" d="M19.29,66.93c.69,1.39,1.35,2.79,2,4.2.13.29.56.04.43-.25-.64-1.41-1.31-2.81-2-4.2-.14-.29-.57-.04-.43.25h0Z"/>
      </g>
      <g>
        <path class="cls-13" d="M107.14,1.64c-1.59,1.35-3.9,1.26-5.67,2.27-.28.16-.03.59.25.43,1.82-1.04,4.12-.94,5.77-2.35.25-.21-.11-.56-.35-.35h0Z"/>
        <path class="cls-13" d="M103.69.31c.5,1.88.94,3.78,1.31,5.69.06.32.54.18.48-.13-.37-1.91-.81-3.81-1.31-5.69-.08-.31-.57-.18-.48.13h0Z"/>
        <path class="cls-13" d="M107.28,4.08c-1.62-.91-3.25-1.81-4.87-2.72-.28-.16-.53.27-.25.43,1.62.91,3.25,1.81,4.87,2.72.28.16.53-.27.25-.43h0Z"/>
        <path class="cls-13" d="M106.03.52c-1,1.67-1.74,3.52-3.03,5-.21.24.14.6.35.35,1.32-1.52,2.08-3.39,3.1-5.1.17-.28-.27-.53-.43-.25h0Z"/>
      </g>
      <g>
        <path class="cls-13" d="M171.71,80.2c-1.59,1.35-3.9,1.26-5.67,2.27-.28.16-.03.59.25.43,1.82-1.04,4.12-.94,5.77-2.35.25-.21-.11-.56-.35-.35h0Z"/>
        <path class="cls-13" d="M168.25,78.87c.5,1.88.94,3.78,1.31,5.69.06.32.54.18.48-.13-.37-1.91-.81-3.81-1.31-5.69-.08-.31-.57-.18-.48.13h0Z"/>
        <path class="cls-13" d="M171.84,82.64c-1.62-.91-3.25-1.81-4.87-2.72-.28-.16-.53.27-.25.43,1.62.91,3.25,1.81,4.87,2.72.28.16.53-.27.25-.43h0Z"/>
        <path class="cls-13" d="M170.59,79.08c-1,1.67-1.74,3.52-3.03,5-.21.24.14.6.35.35,1.32-1.52,2.08-3.39,3.1-5.1.17-.28-.27-.53-.43-.25h0Z"/>
      </g>
      <g>
        <path class="cls-13" d="M168.67,119.45c-2.16-.76-3.64-2.59-3.52-4.93.1-2.01,1.31-3.99,3.14-4.87,2.07-1,4.88-.34,6.34,1.43,1.37,1.66,1.25,4.09.26,5.9-1.25,2.28-3.73,3.36-6.21,2.48-.3-.11-.43.38-.13.48,2.4.85,4.87.01,6.35-2.04,1.33-1.84,1.74-4.49.56-6.51-1.26-2.15-4.22-3.19-6.58-2.5-2.17.64-3.75,2.65-4.13,4.85-.21,1.21-.06,2.48.53,3.58.69,1.29,1.92,2.14,3.28,2.62.3.11.43-.38.13-.48Z"/>
        <path class="cls-13" d="M172.18,112.59s.05.02.01,0c.02,0,.04.02.06.03.02,0,.03.02.05.03.02.01-.01-.01-.01-.01,0,0,.02.02.03.02.01.01.03.03.04.05.03.03,0,0,0,0,.02.04.04.07.06.11,0,.01-.01-.04,0,0,0,.02.01.04.02.05,0,.02.01.04.02.07,0,.01.01.08,0,.04,0-.03,0,.03,0,.04,0,.02,0,.05,0,.07,0,.05,0,.09,0,.14,0,.02,0,.05,0,.07,0-.05,0,0,0,.02,0,.05-.02.1-.03.15-.01.04-.02.09-.04.13,0,.02-.02.05-.03.07,0,.01-.03.07-.01.03-.04.09-.08.17-.13.25-.01.02-.03.04-.04.06,0,0-.01.02-.02.03,0,0,.03-.03,0-.01-.03.04-.06.07-.09.1-.01.01-.03.03-.04.04,0,0-.05.04-.03.02s-.03.02-.04.02c-.02.01-.04.02-.06.03,0,0-.06.03-.03.01s-.03,0-.04.01c-.02,0-.03,0-.05.01,0,0-.04,0,0,0,.04,0,0,0-.01,0s-.02,0-.03,0c.01,0,.05,0,.01,0,.03,0,.02.01,0,0-.02,0-.03-.02-.05-.03,0,0-.01-.01-.02-.02-.03-.02.04.04,0,0-.02-.03-.05-.05-.07-.08.03.03.01.02,0,0-.01-.02-.03-.04-.04-.06,0-.02-.02-.03-.02-.05.02.04,0,.01,0,0-.01-.04-.03-.09-.04-.13,0-.02,0-.04-.01-.06,0-.04,0,.04,0-.02,0-.04,0-.09,0-.13s0-.09,0-.14c0,0,0-.07,0-.04,0,.02,0-.05.01-.06.02-.09.04-.18.07-.27,0-.02.02-.05.03-.07-.02.05.01-.02.02-.04.02-.05.05-.09.07-.14.01-.02.03-.04.04-.06,0,0,.04-.06.03-.04s.03-.03.04-.04c.02-.02.03-.03.05-.05s.03-.03.05-.04c.04-.04-.02.01.02-.02.04-.02.08-.05.12-.07-.05.02,0,0,.02,0,.02,0,.04,0,.06-.02,0,0,.04,0,0,0-.04,0,.01,0,.02,0,.03,0,.05,0,.08,0,.14,0,.25-.12.25-.25,0-.14-.11-.24-.25-.25-.48-.02-.86.35-1.05.77s-.27.95-.08,1.39c.09.2.24.39.44.48.24.11.5.04.71-.1.39-.27.63-.74.7-1.2.08-.54-.06-1.14-.63-1.33-.13-.04-.27.05-.31.17-.04.14.05.26.17.31h0Z"/>
        <path class="cls-13" d="M169.55,113.54s-.07-.03-.1-.05c-.03-.02-.03-.03,0,0-.01-.01-.03-.02-.04-.04s-.02-.03-.04-.04c-.03-.03.03.05,0,0-.02-.03-.03-.07-.05-.1-.01-.02.01.03.01.03,0,0,0-.02,0-.03,0-.02-.01-.03-.02-.05,0-.02,0-.04-.01-.06,0-.01-.01-.08,0-.03s0-.02,0-.03c0-.02,0-.04,0-.06,0-.04,0-.08,0-.12,0-.02,0-.04,0-.06,0-.03,0,.03,0,.03,0-.01,0-.02,0-.03,0-.04.02-.08.03-.13,0-.04.02-.07.03-.11,0-.02.01-.04.02-.06,0-.02.03-.07,0-.02.03-.07.07-.15.11-.21.01-.02.02-.04.03-.05,0,0,.04-.06.02-.02-.02.03.01-.01.02-.02.01-.02.03-.03.04-.05.02-.02.05-.05.07-.07.04-.03,0-.02,0,0,0-.01.04-.03.05-.03,0,0,.08-.05.09-.05,0,0-.07.02,0,0,.02,0,.03,0,.05-.01.05-.01,0,0,0,0,.01,0,.03,0,.04,0s.03,0,.04,0c.03,0-.06-.01-.03,0,.01,0,.02,0,.03,0,.02,0,.03,0,.05.01,0,0,.01,0,.02,0,.04.01-.02,0-.02,0,0,0,.1.06.1.06.02.01.02.03-.01,0,0,0,.02,0,.02.02.02.03-.02-.04,0-.02,0,0,0,.01.01.02,0,.02.02.03.03.05-.02-.05,0-.02,0,0,.01.04.02.08.03.11.01.06,0-.04,0,0,0,.02,0,.05,0,.07,0,.04,0,.09,0,.13,0,.02,0,.04,0,.06,0,.05,0,0,0-.01,0,.02,0,.03,0,.05-.02.1-.04.19-.07.28,0,.03-.02.06-.03.08,0,0,0,.02-.01.03-.01.03.02-.04,0,0-.02.05-.05.1-.07.14s-.06.09-.09.13c0,.01-.03.03,0,0,0,.01-.02.02-.03.03-.02.02-.03.03-.05.05-.02.02-.04.03-.06.05,0,0-.03.02,0,0,.03-.02,0,0-.01,0-.02.01-.04.02-.05.03-.01,0-.08.04-.04.02s-.03,0-.04.01c0,0-.02,0-.02,0-.05.01,0,0,.01,0,0,0-.05,0-.06,0-.01,0-.02,0-.03,0-.05,0,.06,0,0,0-.13-.02-.27.04-.31.17-.03.12.04.28.17.31.51.09.91-.29,1.11-.72.19-.41.3-.96.07-1.38-.11-.2-.37-.32-.59-.34-.19-.01-.38.05-.53.16-.33.24-.55.64-.61,1.04-.08.46.02,1,.49,1.21.12.05.27.04.34-.09.06-.11.03-.29-.09-.34Z"/>
        <path class="cls-13" d="M173.48,115.59c-.5,1.06-1.51,1.73-2.68,1.81-1.08.08-2.23-.31-2.93-1.18-.42-.53-.6-1.18-.6-1.84,0-.32-.5-.32-.5,0,0,1.34.72,2.54,1.94,3.12,1.14.55,2.54.55,3.67-.04.67-.36,1.2-.93,1.53-1.62.14-.29-.29-.54-.43-.25h0Z"/>
        <path class="cls-13" d="M173.27,115.63s.03,0,.05,0h-.07s.09,0,.13.02c.02,0,.04.01.07.02,0,0,.02,0,.03.01.04.02-.06-.03-.01,0,.04.02.08.04.12.06.02.01.04.02.06.04,0,0,.04.03,0,0s0,0,0,0c.03.03.07.06.1.09.02.02.03.03.05.05.02.02-.04-.05-.01-.02,0,.01.01.02.02.03.03.04.05.08.07.12,0,0,0,.02.01.03.02.04,0-.01,0-.02,0,.01.02.06.02.07.04.12.18.22.31.17s.22-.17.17-.31c-.07-.23-.21-.44-.4-.6-.21-.17-.45-.27-.71-.29-.13-.01-.26.12-.25.25,0,.14.11.24.25.25h0Z"/>
        <path class="cls-13" d="M167.71,114.19c-.41-.36-1.03-.43-1.51-.14-.11.07-.16.23-.09.34s.22.16.34.09c.02-.01.05-.03.07-.04.01,0,.02,0,.03-.02.03-.02-.04.02-.01,0,.05-.02.09-.03.14-.04.03,0,.05-.01.08-.01.03,0-.05,0-.01,0,.01,0,.02,0,.03,0,.05,0,.1,0,.16,0,.01,0,.02,0,.03,0,.03,0-.05,0-.01,0,.03,0,.05,0,.08.02.05.01.09.03.14.04.03.01-.04-.02-.01,0,.01,0,.02,0,.03.01.02.01.05.02.07.04.02.01.04.03.06.04.05.03-.03-.02,0,0,.01,0,.02.02.03.03.1.09.26.1.35,0,.09-.09.11-.26,0-.35h0Z"/>
        <path class="cls-13" d="M174.43,113.46h-.02s-.07,0-.1.02c-.03.01-.06.03-.08.05-.02.02-.04.05-.05.08-.02.03-.02.06-.02.1v.07s.04.08.07.11l.05.04s.08.03.13.03h.02s.07,0,.1-.02c.03-.01.06-.03.08-.05.02-.02.04-.05.05-.08.02-.03.02-.06.02-.1v-.07s-.04-.08-.07-.11l-.05-.04s-.08-.03-.13-.03h0Z"/>
        <path class="cls-13" d="M174.82,114.9c.32,0,.32-.5,0-.5s-.32.5,0,.5h0Z"/>
        <path class="cls-13" d="M173.55,114.45v.02s0,.07.02.1c.01.03.03.06.05.08.02.02.05.04.08.05.03.02.06.02.1.02h.07s.08-.04.11-.07l.04-.05s.03-.08.03-.13v-.02s0-.07-.02-.1c-.01-.03-.03-.06-.05-.08-.02-.02-.05-.04-.08-.05-.03-.02-.06-.02-.1-.02h-.07s-.08.04-.11.07l-.04.05s-.03.08-.03.13h0Z"/>
        <path class="cls-13" d="M167.08,112.45c.32,0,.32-.5,0-.5s-.32.5,0,.5h0Z"/>
        <path class="cls-13" d="M167.38,113.08v.02s0,.07.02.1c.01.03.03.06.05.08.02.02.05.04.08.05.03.02.06.02.1.02h.07s.08-.04.11-.07l.04-.05s.03-.08.03-.13v-.02s0-.07-.02-.1c-.01-.03-.03-.06-.05-.08-.02-.02-.05-.04-.08-.05-.03-.02-.06-.02-.1-.02h-.07s-.08.04-.11.07l-.04.05s-.03.08-.03.13h0Z"/>
        <path class="cls-13" d="M166.27,113.28s0,0,0,0l-.04-.05s0,0,0,0l-.03-.06s0,0,0,0v-.07s0,0,0,.01v-.07s0,0,0,0l.03-.06s0,0,0,0l.04-.05s0,0,0,0c-.02.02-.04.05-.05.08-.02.03-.02.06-.02.1,0,.03,0,.07.02.1.01.03.03.06.05.08l.05.04s.08.03.13.03h.07s.08-.04.11-.07c0,0,0,0,0,0l.04-.05h0s0,0,0,0h0s.02-.04.03-.06c0,0,0,0,0,0v-.07s0,0,0,0c0,0,0,0,0,0,0-.01,0-.03,0-.04,0,0,0-.03,0-.04,0,0,0,0,0,0,0-.01-.02-.05-.03-.06s-.01-.02-.02-.03c0,0-.02-.02-.03-.03-.02-.02-.05-.04-.08-.05-.03-.02-.06-.02-.1-.02-.03,0-.07,0-.1.02-.03.01-.06.03-.08.05l-.04.05s-.03.08-.03.13v.07s.04.08.07.11h0Z"/>
      </g>
      <path class="cls-5" d="M71.45,124.3c-.03,1.82,2.83,1.82,2.8,0,.03-1.82-2.83-1.82-2.8,0Z"/>
      <path class="cls-5" d="M63.4,65.96c-.27.6-1.07,1.4-1.66,1.66.6.27,1.4,1.07,1.66,1.66.27-.6,1.07-1.4,1.66-1.66-.6-.27-1.4-1.07-1.66-1.66Z"/>
      <path class="cls-5" d="M63.08,15.63c-.27.6-1.07,1.4-1.66,1.66.6.27,1.4,1.07,1.66,1.66.27-.6,1.07-1.4,1.66-1.66-.6-.27-1.4-1.07-1.66-1.66Z"/>
      <path class="cls-5" d="M152.59,36.1c-.02,1.68,2.61,1.68,2.58,0,.02-1.68-2.61-1.68-2.58,0Z"/>
      <path class="cls-5" d="M76.55,43.82c-.02,1.68,2.61,1.68,2.58,0,.02-1.68-2.61-1.68-2.58,0Z"/>
      <g>
        <g>
          <path class="cls-12" d="M199.88,15.61c-1.33,1.65-5.01,1.82-4.85-.91-2.71,2.81-7.53-1.87-3.54-3.75-1.97-1.94.23-5.89,2.72-4.02-1.92-2.91,3.32-4.43,4.98-2.31,1.58-3.07,6.38-1.11,5.39,2.18,5.25-1.95,6.16,7.94,1.14,5.69,2.01,3.43-3.71,5.88-4.81,2.05-.33.36-.67.73-1.03,1.07Z"/>
          <path class="cls-13" d="M199.79,15.52c-1.25,1.48-4.73,1.83-4.63-.82,0-.11-.14-.16-.21-.09-1.16,1.15-2.92,1.04-4.07-.08-.45-.44-.8-1.04-.78-1.69.03-.87.74-1.43,1.46-1.79.07-.04.08-.14.03-.2-1.72-1.8.13-5.55,2.57-3.83.1.07.24-.07.17-.17-1.77-2.81,3.2-4.07,4.79-2.16.05.06.16.04.2-.03,1.55-2.85,6.03-1.05,5.16,2.08-.02.09.06.19.15.15,1.02-.36,2.13-.36,2.99.37.7.59,1.11,1.48,1.25,2.38.13.82.06,1.8-.49,2.46-.67.79-1.74.63-2.59.26-.11-.05-.24.05-.17.17.77,1.37.31,2.91-1.15,3.56s-2.96-.07-3.43-1.6c-.03-.09-.14-.13-.21-.06-.33.37-.67.73-1.03,1.07-.12.11.06.29.18.18.36-.34.7-.7,1.03-1.07l-.21-.06c.5,1.64,2.09,2.46,3.7,1.79s2.19-2.41,1.33-3.94l-.17.17c.72.31,1.57.53,2.32.15.62-.31.98-.96,1.11-1.62.32-1.52-.28-3.38-1.6-4.25-.89-.58-1.96-.55-2.94-.21l.15.15c.94-3.4-3.93-5.38-5.62-2.28l.2-.03c-1.77-2.14-7.11-.59-5.18,2.46l.17-.17c-1.11-.78-2.42-.58-3.17.58s-.65,2.66.3,3.64l.03-.2c-.75.37-1.46.95-1.57,1.84-.09.73.27,1.43.76,1.95,1.23,1.29,3.21,1.43,4.5.15l-.21-.09c-.1,2.86,3.66,2.65,5.06.99.1-.12-.07-.3-.18-.18Z"/>
        </g>
        <g>
          <g>
            <path class="cls-12" d="M205.59,12.48c-.45-1.18-2.12-1.49-2.96-.54-.16-1.34-2.15-1.09-2.57-.04"/>
            <path class="cls-13" d="M205.71,12.45c-.51-1.26-2.24-1.6-3.17-.6l.21.06c-.21-1.45-2.32-1.2-2.8-.07-.06.15.15.27.22.13.4-.93,2.17-1.23,2.34,0,.01.09.15.12.21.06.79-.85,2.31-.6,2.76.49.06.15.3.08.24-.07h0Z"/>
          </g>
          <g>
            <path class="cls-12" d="M194.13,6.89c.51.38.92.9,1.17,1.49.35-.75,1.75-1.43,2.11-.37.14-2.04,2.95-1.71,3.66-.14"/>
            <path class="cls-13" d="M194.07,7c.5.38.87.87,1.13,1.44.04.09.18.08.22,0,.31-.61,1.51-1.35,1.88-.4.05.13.23.11.25-.03.17-1.95,2.78-1.43,3.42-.07.07.15.28.02.22-.13-.76-1.61-3.7-1.98-3.89.2l.25-.03c-.45-1.17-1.91-.5-2.34.34h.22c-.27-.62-.68-1.12-1.21-1.53-.13-.1-.25.12-.13.22h0Z"/>
          </g>
        </g>
      </g>
      <g>
        <g>
          <path class="cls-12" d="M23.14,91.89c2.95.42,4.5,3.33,3.4,6.07,2.79-1.48,4.49,2.1,2.22,3.87,5.38,1.65,1.36,8.67-2.62,4.36-.92,3.06-5.62,2.66-6.01-.51-1.09,2.21-4.6,2.88-5.88.53-1.25,1.42-3.95,2.03-4.48-.28-1.06,1.89-4.23,1.1-3.97-1.13-1.55,3.94-8.43.67-4.49-2.47-2.66-3.9,2.95-9.38,6.04-5.1.3-2.17,3.94-3.94,4.45-1.05.76-2.14,3.93-3.19,5.22-1.01.95-2.36,3.61-3.82,6.1-3.28Z"/>
          <path class="cls-13" d="M23.11,92.01c2.85.46,4.33,3.25,3.32,5.91-.04.11.1.19.18.14,1.04-.52,2.3-.42,2.86.72.52,1.06.07,2.24-.8,2.95-.08.06-.03.18.06.21.99.32,1.96.91,2.34,1.92.29.76.19,1.62-.22,2.31s-1.09,1.18-1.89,1.25c-1.08.09-2.02-.59-2.73-1.34-.07-.07-.18-.03-.21.06-.94,2.9-5.33,2.48-5.76-.51-.02-.11-.18-.12-.23-.03-1.09,2.09-4.36,2.79-5.66.53-.04-.07-.14-.08-.2-.03-1.16,1.27-3.71,1.97-4.27-.23-.03-.11-.17-.12-.23-.03-1.03,1.71-3.92,1.05-3.74-1.07.01-.15-.2-.15-.25-.03-.69,1.66-2.58,2.12-4.12,1.34-.59-.3-1.15-.8-1.29-1.46-.2-.92.47-1.69,1.13-2.22.04-.03.05-.11.02-.15-1.14-1.74-.72-3.97.75-5.38.65-.62,1.5-1.07,2.41-1.09,1.11-.02,2.02.64,2.66,1.5.06.07.21.09.23-.03.32-1.92,3.66-3.81,4.21-1.05.03.13.2.1.24,0,.76-1.99,3.69-3.05,4.99-.98.06.1.19.07.23-.03.97-2.3,3.49-3.68,5.95-3.19.16.03.22-.21.07-.24-2.6-.51-5.23.93-6.26,3.37l.23-.03c-1.43-2.26-4.62-1.15-5.45,1.04h.24c-.6-3-4.33-1.14-4.69,1.05l.23-.03c-1.01-1.35-2.57-2.03-4.18-1.32-1.49.65-2.58,2.18-2.76,3.79-.05.42-.03.85.05,1.26.09.45.37.82.48,1.25.07.27.1.06-.06.29-.06.09-.18.16-.25.24-.12.13-.24.27-.34.41-.19.28-.34.59-.39.93-.2,1.28.96,2.23,2.07,2.55,1.6.47,3.2-.19,3.85-1.75l-.25-.03c-.2,2.37,3.05,3.11,4.2,1.19l-.23-.03c.61,2.38,3.39,1.76,4.69.34l-.2-.03c1.39,2.42,4.91,1.73,6.09-.53l-.23-.03c.47,3.25,5.24,3.62,6.25.51l-.21.06c.77.81,1.79,1.52,2.96,1.41.87-.08,1.62-.63,2.06-1.37s.55-1.72.22-2.55c-.42-1.08-1.44-1.71-2.5-2.05l.06.21c.99-.81,1.44-2.19.78-3.35s-2.03-1.27-3.15-.71l.18.14c1.06-2.78-.51-5.74-3.49-6.22-.16-.03-.23.22-.07.24Z"/>
        </g>
        <g>
          <g>
            <path class="cls-12" d="M26.56,97.93c-.83.42-1.48,1.17-1.77,2.05.13-1.75-2.54-2.06-2.81-.32-.04-3.06-3.88-3.01-4.14-.05"/>
            <path class="cls-13" d="M26.5,97.82c-.87.46-1.5,1.2-1.83,2.13l.25.03c.08-1.86-2.72-2.19-3.05-.35l.25.03c-.03-1.23-.78-2.4-2.11-2.41s-2.15,1.13-2.28,2.35c-.02.16.23.16.25,0,.11-1.09.85-2.1,2.03-2.1s1.83,1.07,1.86,2.16c0,.13.22.18.25.03.29-1.56,2.63-1.3,2.56.29,0,.15.2.16.25.03.3-.86.91-1.55,1.72-1.98.14-.07.02-.29-.13-.22h0Z"/>
          </g>
          <g>
            <path class="cls-12" d="M1.37,102.33c.95-.63,2.32-.52,3.16.25.4-1.78,2.93-1.75,3.7-.24.42-2.01,3.16-2.11,4.37-.71"/>
            <path class="cls-13" d="M1.43,102.44c.95-.58,2.16-.5,3.01.23.07.06.18.04.21-.06.43-1.68,2.72-1.58,3.47-.21.05.09.2.07.23-.03.46-1.93,2.99-1.94,4.16-.66.11.12.28-.06.18-.18-1.29-1.42-4.07-1.34-4.58.77l.23-.03c-.86-1.57-3.44-1.62-3.93.27l.21-.06c-.93-.8-2.26-.92-3.31-.27-.14.08-.01.3.13.22h0Z"/>
          </g>
          <g>
            <path class="cls-12" d="M26.18,106.21c.2-1.17-1.39-3.08-2.3-1.65-.06-1.11-2.01-2.06-2.54-.81"/>
            <path class="cls-13" d="M26.3,106.24c.11-.72-.28-1.51-.82-1.97-.24-.2-.54-.36-.87-.34-.37.02-.64.28-.84.57l.23.06c-.1-1.21-2.15-2.25-2.77-.87-.07.15.15.27.22.13.51-1.13,2.23-.24,2.31.75,0,.12.16.17.23.06.85-1.29,2.22.57,2.07,1.55-.02.16.22.23.24.07h0Z"/>
          </g>
        </g>
      </g>
      <g>
        <g>
          <path class="cls-12" d="M197.37,56.19c2.95.42,4.5,3.33,3.4,6.07,2.79-1.48,4.49,2.1,2.22,3.87,5.38,1.65,1.36,8.67-2.62,4.36-.92,3.06-5.62,2.66-6.01-.51-1.09,2.21-4.6,2.88-5.88.53-1.25,1.42-3.95,2.03-4.48-.28-1.06,1.89-4.23,1.1-3.97-1.13-1.55,3.94-8.43.67-4.49-2.47-2.66-3.9,2.95-9.38,6.04-5.1.3-2.17,3.94-3.94,4.45-1.05.76-2.14,3.93-3.19,5.22-1.01.95-2.36,3.61-3.82,6.1-3.28Z"/>
          <path class="cls-13" d="M197.34,56.31c2.85.46,4.33,3.25,3.32,5.91-.04.11.1.19.18.14,1.04-.52,2.3-.42,2.86.72.52,1.06.07,2.24-.8,2.95-.08.06-.03.18.06.21.99.32,1.96.91,2.34,1.92.29.76.19,1.62-.22,2.31s-1.09,1.18-1.89,1.25c-1.08.09-2.02-.59-2.73-1.34-.07-.07-.18-.03-.21.06-.94,2.9-5.33,2.48-5.76-.51-.02-.11-.18-.12-.23-.03-1.09,2.09-4.36,2.79-5.66.53-.04-.07-.14-.08-.2-.03-1.16,1.27-3.71,1.97-4.27-.23-.03-.11-.17-.12-.23-.03-1.03,1.71-3.92,1.05-3.74-1.07.01-.15-.2-.15-.25-.03-.69,1.66-2.58,2.12-4.12,1.34-.59-.3-1.15-.8-1.29-1.46-.2-.92.47-1.69,1.13-2.22.04-.03.05-.11.02-.15-1.14-1.74-.72-3.97.75-5.38.65-.62,1.5-1.07,2.41-1.09,1.11-.02,2.02.64,2.66,1.5.06.07.21.09.23-.03.32-1.92,3.66-3.81,4.21-1.05.03.13.2.1.24,0,.76-1.99,3.69-3.05,4.99-.98.06.1.19.07.23-.03.97-2.3,3.49-3.68,5.95-3.19.16.03.22-.21.07-.24-2.6-.51-5.23.93-6.26,3.37l.23-.03c-1.43-2.26-4.62-1.15-5.45,1.04h.24c-.6-3-4.33-1.14-4.69,1.05l.23-.03c-1.01-1.35-2.57-2.03-4.18-1.32-1.49.65-2.58,2.18-2.76,3.79-.05.42-.03.85.05,1.26.09.45.37.82.48,1.25.07.27.1.06-.06.29-.06.09-.18.16-.25.24-.12.13-.24.27-.34.41-.19.28-.34.59-.39.93-.2,1.28.96,2.23,2.07,2.55,1.6.47,3.2-.19,3.85-1.75l-.25-.03c-.2,2.37,3.05,3.11,4.2,1.19l-.23-.03c.61,2.38,3.39,1.76,4.69.34l-.2-.03c1.39,2.42,4.91,1.73,6.09-.53l-.23-.03c.47,3.25,5.24,3.62,6.25.51l-.21.06c.77.81,1.79,1.52,2.96,1.41.87-.08,1.62-.63,2.06-1.37s.55-1.72.22-2.55c-.42-1.08-1.44-1.71-2.5-2.05l.06.21c.99-.81,1.44-2.19.78-3.35s-2.03-1.27-3.15-.71l.18.14c1.06-2.78-.51-5.74-3.49-6.22-.16-.03-.23.22-.07.24Z"/>
        </g>
        <g>
          <g>
            <path class="cls-12" d="M200.79,62.23c-.83.42-1.48,1.17-1.77,2.05.13-1.75-2.54-2.06-2.81-.32-.04-3.06-3.88-3.01-4.14-.05"/>
            <path class="cls-13" d="M200.72,62.12c-.87.46-1.5,1.2-1.83,2.13l.25.03c.08-1.86-2.72-2.19-3.05-.35l.25.03c-.03-1.23-.78-2.4-2.11-2.41s-2.15,1.13-2.28,2.35c-.02.16.23.16.25,0,.11-1.09.85-2.1,2.03-2.1s1.83,1.07,1.86,2.16c0,.13.22.18.25.03.29-1.56,2.63-1.3,2.56.29,0,.15.2.16.25.03.3-.86.91-1.55,1.72-1.98.14-.07.02-.29-.13-.22h0Z"/>
          </g>
          <g>
            <path class="cls-12" d="M175.59,66.63c.95-.63,2.32-.52,3.16.25.4-1.78,2.93-1.75,3.7-.24.42-2.01,3.16-2.11,4.37-.71"/>
            <path class="cls-13" d="M175.66,66.74c.95-.58,2.16-.5,3.01.23.07.06.18.04.21-.06.43-1.68,2.72-1.58,3.47-.21.05.09.2.07.23-.03.46-1.93,2.99-1.94,4.16-.66.11.12.28-.06.18-.18-1.29-1.42-4.07-1.34-4.58.77l.23-.03c-.86-1.57-3.44-1.62-3.93.27l.21-.06c-.93-.8-2.26-.92-3.31-.27-.14.08-.01.3.13.22h0Z"/>
          </g>
          <g>
            <path class="cls-12" d="M200.41,70.51c.2-1.17-1.39-3.08-2.3-1.65-.06-1.11-2.01-2.06-2.54-.81"/>
            <path class="cls-13" d="M200.53,70.54c.11-.72-.28-1.51-.82-1.97-.24-.2-.54-.36-.87-.34-.37.02-.64.28-.84.57l.23.06c-.1-1.21-2.15-2.25-2.77-.87-.07.15.15.27.22.13.51-1.13,2.23-.24,2.31.75,0,.12.16.17.23.06.85-1.29,2.22.57,2.07,1.55-.02.16.22.23.24.07h0Z"/>
          </g>
        </g>
      </g>
      <g>
        <g>
          <g>
            <path class="cls-7" d="M54.12,172.63h116.73c2.66.03,5.04-2.07,5.04-4.79.04-3.9.79-10.82-5.04-10.64,0,0-116.73,0-116.73,0-1.36,0-2.59.51-3.5,1.34-2.42,1.67-1.28,6.89-1.54,9.3.01,2.72,2.33,4.79,5.04,4.79Z"/>
            <polygon class="cls-7" points="50.62 158.54 79.02 133.52 146.04 133.52 174.44 158.54 50.62 158.54"/>
            <g>
              <path class="cls-5" d="M162.13,172.63c1.08-1.08,1.33-3.37,1.33-3.37-.2,0,.74-11.6-1.33-12.06,0,0-22.84-23.67-22.84-23.67"/>
              <path class="cls-5" d="M158.75,172.63c1.08-1.08,1.33-3.37,1.33-3.37-.19,0,.74-11.6-1.33-12.06,0,0-22.07-23.67-22.07-23.67"/>
              <path class="cls-5" d="M155.38,172.63c1.08-1.08,1.33-3.37,1.33-3.37-.19,0,.74-11.6-1.33-12.06,0,0-21.43-23.67-21.43-23.67"/>
              <path class="cls-5" d="M66.18,172.63c-1.08-1.08-1.33-3.37-1.33-3.37.2,0-.74-11.6,1.33-12.06,0,0,24.12-23.67,24.12-23.67"/>
              <path class="cls-5" d="M69.56,172.63c-1.08-1.08-1.33-3.37-1.33-3.37.2,0-.74-11.6,1.33-12.06,0,0,23.96-23.67,23.96-23.67"/>
            </g>
            <path class="cls-5" d="M72.93,172.63c-1.08-1.08-1.33-3.37-1.33-3.37.2,0-.74-11.6,1.33-12.06,0,0,23.75-23.67,23.75-23.67"/>
            <path class="cls-3" d="M80.71,167.69c1.09-1.2,71.17,2.84,68.55-2.38,2.89-5.19-67.75-1.2-68.55-2.38-3.08-.03-3.1,4.81,0,4.76Z"/>
          </g>
          <g>
            <g>
              <polygon class="cls-4" points="63.4 141.24 91.8 116.22 158.82 116.22 187.22 141.24 63.4 141.24"/>
              <polygon class="cls-3" points="96.69 119.99 80.37 135.29 93.06 135.29 107.32 119.99 96.69 119.99"/>
            </g>
            <g>
              <path class="cls-4" d="M66.9,155.32h116.73c2.66.03,5.04-2.07,5.04-4.79.04-3.9.79-10.82-5.04-10.64,0,0-116.73,0-116.73,0-1.36,0-2.59.51-3.5,1.34-2.42,1.67-1.28,6.89-1.54,9.3.01,2.72,2.33,4.79,5.04,4.79Z"/>
              <path class="cls-3" d="M66.9,153.01h116.73c.99,0,4.3.01,4.3.01,1.1-1.14,1.23-9.26-.04-10.89,0,0-3.27,0-4.26,0h-116.73c-1.36,0-4.26,0-4.26,0-1.01,1.03-.8,4.32-.78,6.1-.05.99-.06,4.34.79,4.79h4.24Z"/>
              <g>
                <line class="cls-5" x1="188.67" y1="144.61" x2="61.86" y2="144.61"/>
                <line class="cls-5" x1="188.67" y1="146.8" x2="61.86" y2="146.8"/>
                <line class="cls-5" x1="188.67" y1="148.99" x2="61.86" y2="148.99"/>
                <line class="cls-5" x1="188.67" y1="151.18" x2="61.86" y2="151.18"/>
              </g>
            </g>
          </g>
        </g>
        <g>
          <path class="cls-6" d="M136.93,177.98c7.74.91,7.73-11.08.01-10.18v10.18Z"/>
          <g>
            <path class="cls-3" d="M64.32,178.08c-10.71-6.07-10.66-4.15.01-10.18,5.67-.16,5.66,10.36-.01,10.18Z"/>
            <g>
              <g class="cls-19">
                <path class="cls-2" d="M58.1,174.99s1.35-1.97,0-3.94c-3.94.05-3.57,3.86,0,3.94Z"/>
              </g>
              <path class="cls-5" d="M64.32,178.08c-10.71-6.07-10.66-4.15.01-10.18,5.67-.16,5.66,10.36-.01,10.18Z"/>
            </g>
            <path class="cls-5" d="M64.32,178.08c-10.71-6.07-10.66-4.15.01-10.18,5.67-.16,5.66,10.36-.01,10.18Z"/>
          </g>
          <g>
            <path class="cls-1" d="M64.33,167.9c.91.63.87,1.87,0,2.51.92.67.93,1.92,0,2.59.94.67.91,1.92,0,2.59.87.64.9,1.88,0,2.51l68.17.03v-10.18s-68.16-.03-68.16-.03Z"/>
            <g>
              <line class="cls-5" x1="132.49" y1="175.6" x2="64.32" y2="175.57"/>
              <line class="cls-5" x1="132.49" y1="173.02" x2="64.32" y2="172.99"/>
              <line class="cls-5" x1="132.49" y1="170.43" x2="64.32" y2="170.4"/>
            </g>
          </g>
          <g>
            <path class="cls-7" d="M131.88,167.91c.36.88-.92,11.14.86,10.97,1.77.22.53-10.15.89-10.97,0-.55-.32-1.13-.87-1.14-.56.02-.87.58-.88,1.14Z"/>
            <path class="cls-7" d="M133.63,167.91c.36.88-.92,11.14.86,10.97,1.77.22.53-10.15.89-10.97,0-.55-.32-1.13-.87-1.14-.56.02-.87.58-.88,1.14Z"/>
            <path class="cls-7" d="M135.38,167.91c.36.88-.92,11.14.86,10.97,1.77.22.53-10.15.89-10.97,0-.55-.32-1.13-.87-1.14-.56.02-.87.58-.88,1.14Z"/>
          </g>
        </g>
        <g>
          <g>
            <path class="cls-6" d="M127.33,31.89c-2.14-10.99,22.27-11.27,22.18,2.47.42,9.45-.42,17.33,1.75,21.55,2.17,4.21,7.16,4.75,7.1,7.46-.06,2.71-3.55,1.85-4.87.95,0,0,1.43.75,2.87,1.44,1.44.69.38,2.54-1.55,2.12-1.93-.42-3.43-1.65-3.43-1.65,0,0,1.72,1.27,3.11,1.99,1.38.72-.04,3.46-2.14,2.91-2.11-.54-3.85-2.17-3.85-2.17,0,0,.98.77,2.66,1.74,1.42.82-.49,4.1-4.58,1.15-19.15-12.39-5.17-26.52-19.23-39.96Z"/>
            <g>
              <path class="cls-5" d="M153.48,64.32c-9.33-3.36-6.99-21.07-7.46-29.23.16-11.01-16.77-11.13-17.02-2.59"/>
              <path class="cls-5" d="M151.37,66.23c-9.8-4.04-9.21-15.97-8.82-25.88,1.22-13.94-11.22-14.99-12.66-5.83"/>
              <path class="cls-5" d="M148.48,68.97c-3.82-2.01-11.4-12.27-9.64-18.6.23-4.11,1.73-17.78-2.65-18.86-4.42-1.09-4.54,4.72-4.54,4.72"/>
            </g>
          </g>
          <g>
            <path class="cls-8" d="M97.91,78.79c-.38.5-.63.82-.63.82l-13.33-7.98s-1.58-2.19-3.35-2.86c-1.77-.67-1.58-2.4-2.83-2.54-1.25-.14-1.49,1.05-.62,3.26,0,0-1.61.2-3.14-.42-1.53-.62-1.34-2.32-2.73-2.41-1.39-.08-.81,1.64-.81,1.64,0,0-.59-1.34-1.74-.72-1.15.62.22,2.65.22,2.65,0,0-.53-1.34-1.63-.72-1.1.62.29,2.97.29,2.97-3.87-1.49-.47,7.09,8.42,6.06,12.87,13.21,21.94,24.69,35.17,1.56l-9.24-6.65s-2.77,3.65-4.05,5.33Z"/>
            <g>
              <path class="cls-5" d="M97.28,79.62s2.11,1.14,3.03,4.07"/>
              <path class="cls-5" d="M77.15,69.5s.22.52.69,1.24c0,0-2.72.29-2.72,3.1"/>
              <path class="cls-5" d="M70.46,68.31c.09,1.37,2.4,2.82,3.45,2.89"/>
              <path class="cls-5" d="M68.94,70.25c-.01.9,2.82,2.98,3.8,2.85"/>
              <path class="cls-5" d="M67.6,72.5c.31,1.41,3.02,3.25,4.38,3.06"/>
            </g>
          </g>
          <g>
            <g>
              <g>
                <path class="cls-7" d="M145.71,124.81c3.37.22,16.4.7,21.39.32,8.51-3.55-1.64-11.04-5.8-13.64-4.51-3.34-9.44-5.5-12.58,0l-5.93-.03,2.93,13.36Z"/>
                <g>
                  <g class="cls-11">
                    <g>
                      <path class="cls-13" d="M162.47,120.53c-.29,2.37.04,4.8.95,7.01.12.29.61.16.48-.13-.9-2.18-1.22-4.54-.94-6.87.04-.32-.46-.32-.5,0h0Z"/>
                      <path class="cls-13" d="M160.08,120.23c-.35,1.92-.26,3.9.3,5.77.09.31.57.18.48-.13-.53-1.79-.64-3.67-.3-5.51.06-.31-.42-.45-.48-.13h0Z"/>
                      <path class="cls-13" d="M157.5,120.12c-.21,2.17,0,4.36.61,6.45.09.31.57.18.48-.13-.6-2.05-.8-4.19-.59-6.32.03-.32-.47-.32-.5,0h0Z"/>
                      <path class="cls-13" d="M154.97,120.07c-.03,2.45.31,4.89,1.03,7.23.09.31.58.18.48-.13-.7-2.3-1.05-4.69-1.01-7.1,0-.32-.5-.32-.5,0h0Z"/>
                      <path class="cls-13" d="M167.51,119.27c-4.99-.58-10.01-.57-15.03-.73-.32-.01-.32.49,0,.5,5.01.16,10.04.15,15.03.73.32.04.32-.46,0-.5h0Z"/>
                      <path class="cls-13" d="M153.23,126.53c-.72-2.49-.9-5.11-.51-7.68.02-.1,0-.23-.11-.28-1.74-.84-5.19-2.6-6.32,0-.33.78-.37,1.66-.34,2.49.01.3.03.6.07.9s0,.6,0,.91c0,.44.04.88.15,1.31.34,1.35,1.4,2.12,2.72,2.37.72.13,1.46.15,2.19.16.61,0,1.25-.02,1.85.13.31.08.45-.4.13-.48-1.94-.48-5.01.54-6.17-1.65-.39-.73-.38-1.56-.35-2.36.02-.54-.09-1.1-.1-1.65,0-.42.02-.83.1-1.24.11-.53.31-1.09.77-1.43.38-.28.86-.34,1.32-.31,1.3.08,2.56.73,3.72,1.29l-.11-.28c-.41,2.66-.24,5.36.51,7.95.09.31.57.18.48-.13Z"/>
                      <path class="cls-5" d="M152.28,120.5c-2.16-1.13-4.38-1.51-4.09,2.53.03,1.21,2.9.97,4.3.8"/>
                      <path class="cls-13" d="M159.89,113.19c-3.66,1.74-7.41-1.14-10.68-2.52-.3-.12-.43.36-.13.48,3.45,1.45,7.21,4.3,11.06,2.47.29-.14.04-.57-.25-.43h0Z"/>
                    </g>
                    <path class="cls-2" d="M150.62,109.18c3.65-.35,23.34,10.78,16.48,15.95,0,0-.41,2.3,2.46.49,0,0,5-3.53,1.92-7.3-3.08-3.77-13.86-12.73-18.49-12.27-4.63.46-2.37,3.13-2.37,3.13Z"/>
                  </g>
                  <path class="cls-5" d="M145.71,124.81c3.37.22,16.4.7,21.39.32,8.51-3.55-1.64-11.04-5.8-13.64-4.51-3.34-9.44-5.5-12.58,0l-5.93-.03,2.93,13.36Z"/>
                </g>
                <path class="cls-5" d="M145.71,124.81c3.37.22,16.4.7,21.39.32,8.51-3.55-1.64-11.04-5.8-13.64-4.51-3.34-9.44-5.5-12.58,0l-5.93-.03,2.93,13.36Z"/>
              </g>
              <g>
                <path class="cls-10" d="M90.63,116.77c1.78-6.02,14.04-19.75,14.04-19.75l16.43,1.95s9.25,9.66,2.8,18.76c0,0,2.23.21,4.89.45l.2-6.87,18.17.16s-2.56,6.37,1.37,14.04l-14.3,6.64c.05.09.09.18.14.27-3.85-1.03-51.68,8.6-43.76-15.66Z"/>
                <g>
                  <path class="cls-13" d="M144.24,111.48c-.81,1.67-1.17,3.53-1.02,5.39.03.32.53.32.5,0-.14-1.76.18-3.54.95-5.13.14-.29-.29-.54-.43-.25h0Z"/>
                  <path class="cls-13" d="M143.58,118.45c.11.54.23,1.08.34,1.62.03.13.18.21.31.17.14-.04.2-.17.17-.31-.11-.54-.23-1.08-.34-1.62-.03-.13-.18-.21-.31-.17-.14.04-.2.17-.17.31h0Z"/>
                </g>
              </g>
            </g>
            <g>
              <g>
                <path class="cls-7" d="M151.47,134.55c3.37.22,16.4.7,21.39.32,8.51-3.55-1.64-11.04-5.8-13.64-4.51-3.34-9.44-5.5-12.58,0l-5.93-.03,2.93,13.36Z"/>
                <g>
                  <g class="cls-18">
                    <g>
                      <path class="cls-13" d="M168.24,130.27c-.29,2.37.04,4.8.95,7.01.12.29.61.16.48-.13-.9-2.18-1.22-4.54-.94-6.87.04-.32-.46-.32-.5,0h0Z"/>
                      <path class="cls-13" d="M165.84,129.98c-.35,1.92-.26,3.9.3,5.77.09.31.57.18.48-.13-.53-1.79-.64-3.67-.3-5.51.06-.31-.42-.45-.48-.13h0Z"/>
                      <path class="cls-13" d="M163.26,129.86c-.21,2.17,0,4.36.61,6.45.09.31.57.18.48-.13-.6-2.05-.8-4.19-.59-6.32.03-.32-.47-.32-.5,0h0Z"/>
                      <path class="cls-13" d="M160.73,129.81c-.03,2.45.32,4.89,1.03,7.23.09.31.58.18.48-.13-.7-2.3-1.05-4.69-1.01-7.1,0-.32-.5-.32-.5,0h0Z"/>
                      <path class="cls-13" d="M173.27,129.01c-4.99-.58-10.01-.57-15.03-.73-.32-.01-.32.49,0,.5,5.01.16,10.04.15,15.03.73.32.04.32-.46,0-.5h0Z"/>
                      <path class="cls-13" d="M159,136.28c-.72-2.49-.9-5.11-.51-7.68.02-.1,0-.23-.11-.28-1.74-.84-5.19-2.6-6.32,0-.33.78-.37,1.66-.34,2.49.01.3.03.6.07.9s0,.6,0,.91c0,.44.04.88.15,1.31.34,1.35,1.4,2.12,2.72,2.37.72.13,1.46.15,2.19.16.61,0,1.25-.02,1.85.13.31.08.45-.4.13-.48-1.94-.48-5.01.54-6.17-1.65-.39-.73-.38-1.56-.35-2.36.02-.54-.09-1.1-.1-1.65,0-.42.02-.83.1-1.24.11-.53.31-1.09.77-1.43.38-.28.86-.34,1.32-.31,1.3.08,2.56.73,3.72,1.29l-.11-.28c-.41,2.66-.24,5.36.51,7.95.09.31.57.18.48-.13Z"/>
                      <path class="cls-5" d="M158.04,130.24c-2.16-1.13-4.38-1.51-4.09,2.53.03,1.21,2.9.97,4.3.8"/>
                      <path class="cls-13" d="M165.65,122.93c-3.66,1.74-7.41-1.14-10.68-2.52-.3-.12-.43.36-.13.48,3.45,1.45,7.21,4.3,11.06,2.47.29-.14.04-.57-.25-.43h0Z"/>
                    </g>
                    <path class="cls-2" d="M156.38,118.93c3.65-.35,23.34,10.78,16.48,15.95,0,0-.41,2.3,2.46.49,0,0,5-3.53,1.92-7.3-3.08-3.77-13.86-12.73-18.49-12.27-4.63.46-2.37,3.13-2.37,3.13Z"/>
                  </g>
                  <path class="cls-5" d="M151.47,134.55c3.37.22,16.4.7,21.39.32,8.51-3.55-1.64-11.04-5.8-13.64-4.51-3.34-9.44-5.5-12.58,0l-5.93-.03,2.93,13.36Z"/>
                </g>
                <path class="cls-5" d="M151.47,134.55c3.37.22,16.4.7,21.39.32,8.51-3.55-1.64-11.04-5.8-13.64-4.51-3.34-9.44-5.5-12.58,0l-5.93-.03,2.93,13.36Z"/>
              </g>
              <g>
                <path class="cls-10" d="M136.72,101.34s9.25,9.66,2.8,18.76c0,0,9.02.35,13.65,1.13,0,0-3.45,6.71.26,13.44-17.93.79-72.44,8.36-35.72-31.81l19-1.51Z"/>
                <path class="cls-5" d="M139.53,120.09s-8.45-.25-11.23-.44"/>
              </g>
              <path class="cls-13" d="M149.78,120.74c-1.01,2.43-1.16,5.09-1.18,7.69,0,.32.5.32.5,0,.02-2.56.17-5.16,1.16-7.56.12-.3-.36-.43-.48-.13h0Z"/>
              <path class="cls-13" d="M147.56,121.36c-.44.93-.72,1.92-.83,2.94-.01.13.13.25.25.25.15,0,.24-.12.25-.25.1-.93.36-1.84.76-2.69.06-.12.03-.27-.09-.34-.11-.06-.28-.03-.34.09h0Z"/>
              <path class="cls-13" d="M144.92,134.92c-1.65-2.03-.57-4.96-.83-7.32-.04-.32-.54-.32-.5,0,.29,2.55-.81,5.48.98,7.67.2.25.56-.11.35-.35h0Z"/>
              <path class="cls-13" d="M142.81,134.89c-.27-.3-.41-.68-.51-1.06-.11-.4-.17-.82-.22-1.23-.02-.13-.1-.25-.25-.25-.12,0-.27.12-.25.25.11.92.24,1.93.88,2.64.21.24.57-.11.35-.35h0Z"/>
              <path class="cls-13" d="M139.46,119.66c-1.06-.6-2.08-1.28-3.05-2.04-.11-.08-.25-.1-.35,0-.09.09-.11.27,0,.35,1,.78,2.04,1.49,3.15,2.11.28.16.53-.27.25-.43h0Z"/>
              <path class="cls-13" d="M136.21,103.69c.33.52.65,1.05.98,1.57.07.11.23.16.34.09s.16-.22.09-.34c-.33-.52-.65-1.05-.98-1.57-.07-.11-.23-.16-.34-.09s-.16.22-.09.34h0Z"/>
              <path class="cls-13" d="M138.17,107.64c.22.65.43,1.3.65,1.95.04.13.17.21.31.17.13-.03.22-.18.17-.31-.22-.65-.43-1.3-.65-1.95-.04-.13-.17-.21-.31-.17-.13.03-.22.18-.17.31h0Z"/>
              <path class="cls-13" d="M139.34,112.31c.1.68.1,1.38,0,2.06-.02.13.03.27.17.31.12.03.29-.04.31-.17.11-.78.11-1.55,0-2.32-.02-.13-.19-.21-.31-.17-.14.04-.19.17-.17.31h0Z"/>
              <path class="cls-13" d="M139.07,116.57c-.15.56-.29,1.11-.44,1.67-.03.13.04.28.17.31s.27-.04.31-.17c.15-.56.29-1.11.44-1.67.03-.13-.04-.28-.17-.31s-.27.04-.31.17h0Z"/>
            </g>
          </g>
          <g>
            <path class="cls-7" d="M133.68,60.78c16.77,4.73,11.94,12.26,5.32,23.11-5.43,4.03-4.86,10.19-2.47,15.4-7.69,3.56-23.86,5.39-31.87-2.27.78-.21,6.59-10.12,4.96-13.69-1.64-2.12-1.33-3.85-1.33-3.85,0,0-5.07-2.81-6.69-5.73,4.26-7.05,11.11-15.41,21.31-13.92,1.5,1.9,8.84,2.64,10.77.95Z"/>
            <g>
              <path class="cls-5" d="M112.78,69.3c.23,3.38-9.79,12.38-.73,15.32"/>
              <path class="cls-13" d="M133.27,83.88c-2.69,2.5-6.89,2.89-10,.96-.27-.17-.53.26-.25.43,3.3,2.06,7.76,1.61,10.61-1.03.24-.22-.12-.57-.35-.35h0Z"/>
              <path class="cls-5" d="M135.64,61.35c-1.35,7.5-14.96,5.84-14.85-1.53"/>
            </g>
          </g>
          <g>
            <path class="cls-8" d="M125.4,56.14l-.23,3.58s-2.2.01-2.25.11c.16,5.23,9.7,6.06,10.77.95l-2.29-.69.41-5.62-6.4,1.67Z"/>
            <path class="cls-2" d="M125.29,57.94c2.22.98,7.19-.4,6.51-3.47l-6.4,1.67-.11,1.8Z"/>
          </g>
          <g>
            <g>
              <path class="cls-14" d="M135.49,41.73c4.03,17.44-15.87,20.43-16.61,8.06.14-3.2,2.24-5.97,2.5-9.15,0,0,.23-3.7,5.63-4.26,5.4-.56,8.27,2.84,8.48,5.35Z"/>
              <path class="cls-13" d="M135.25,41.79c.91,4.02.81,8.66-1.96,11.97-1.91,2.28-4.89,3.61-7.88,3.24s-5.34-2.58-6.04-5.54c-.3-1.25-.25-2.4.08-3.65.43-1.61,1.16-3.11,1.66-4.69.27-.85.4-1.86.54-2.65.1-.52.31-1,.6-1.44,1.6-2.42,5.31-2.83,7.9-2.26,2.38.53,4.84,2.36,5.09,4.95.03.32.53.32.5,0-.21-2.15-1.83-3.94-3.72-4.84-2.54-1.2-6.06-1.17-8.5.29-1.19.71-2.17,1.9-2.37,3.3s-.52,2.6-1.01,3.88c-.63,1.66-1.34,3.32-1.49,5.11s.58,3.75,1.62,5.14c.9,1.2,2.16,2.09,3.59,2.56,3.03,1,6.45.06,8.8-2.03,3.2-2.85,4-7.33,3.46-11.42-.09-.69-.22-1.38-.38-2.07-.07-.31-.55-.18-.48.13Z"/>
            </g>
            <g>
              <path class="cls-2" d="M122.89,47.61c-.2,1.58-1.95,1.35-1.72-.23.2-1.58,1.95-1.35,1.72.23Z"/>
              <path class="cls-2" d="M128.14,48.32c-.23,1.58,1.53,1.82,1.72.23.23-1.58-1.53-1.82-1.72-.23Z"/>
            </g>
            <path class="cls-13" d="M125.1,46.45c-.12.72-.47,1.4-.68,2.1-.16.53-.41,1.46.25,1.76.45.21,1.02,0,1.45-.18.13-.05.21-.17.17-.31-.03-.12-.18-.22-.31-.17-.23.09-.46.17-.7.22-.08.01-.11.02-.2.02-.04,0-.07,0-.11,0-.04,0,.06.01,0,0-.02,0-.03,0-.05-.01-.02,0-.03,0-.05-.01,0,0,.05.02,0,0-.02-.01-.04-.02-.06-.03.06.04-.01-.01-.02-.03,0-.01-.02-.04,0,.01,0-.01-.02-.03-.03-.04-.03-.06,0,.02,0-.02,0-.03-.01-.05-.02-.08,0-.02,0-.03,0-.05,0,0,0,.06,0,0,0-.03,0-.07,0-.1,0-.29.08-.58.17-.89.11-.36.24-.7.36-1.05.12-.33.24-.66.3-1,.05-.31-.43-.45-.48-.13h0Z"/>
            <path class="cls-13" d="M122.79,51.3c.32,1.78,2.75,2.55,4.17,1.53.42-.3.7-.73.84-1.22.08-.31-.4-.44-.48-.13-.4,1.49-2.42,1.66-3.46.73-.31-.28-.51-.63-.58-1.04-.06-.32-.54-.18-.48.13h0Z"/>
            <g>
              <g>
                <path class="cls-17" d="M129.82,45.95c2.32.35-.8-1.94-1.63-.8-.59,1.03,1.17.45,1.63.8Z"/>
                <path class="cls-13" d="M129.76,46.19c.26.04.58.09.84,0,.22-.08.37-.27.31-.52-.05-.18-.19-.33-.33-.45-.19-.15-.39-.28-.61-.38-.45-.21-1.02-.37-1.5-.19-.29.11-.5.32-.6.62-.05.15-.05.31.01.45.06.13.18.2.31.25.23.09.51.08.76.09.13,0,.27,0,.4.01.03,0,.06,0,.09,0,.02,0,.03,0,.05,0,.03,0-.04,0-.03,0,0,0,.02,0,.03,0,.05,0,.1.02.15.04.01,0,.05.02,0,0s0,0,0,0c.02.01.04.02.06.04.11.08.28.02.34-.09.07-.13.02-.26-.09-.34-.19-.14-.46-.15-.69-.16-.24-.01-.48,0-.72-.02-.01,0-.03,0-.04,0-.05,0,.05,0,.01,0-.03,0-.05,0-.08-.01-.02,0-.04-.01-.06-.02-.01,0-.02,0-.03,0-.04-.01,0,0,.02,0,0-.01-.04-.02-.05-.03-.04-.02.02,0,.02.02,0,0-.02-.02-.02-.02-.03-.03.03.06,0,0-.01-.03.02.06.01.03,0,0,0-.02,0-.03,0,0,0,.07,0,.03,0,0,0-.02,0-.03,0-.01,0-.05,0,0s0,0,0-.01c0-.03.02-.06.03-.08.02-.05-.01.02,0,0,0-.02.02-.04.03-.05,0-.02.02-.03.03-.05.02-.04.01,0,0,0,.02,0,.04-.04.05-.06.02-.02.03-.03.05-.05.04-.03-.04.03-.01,0,.01,0,.02-.01.03-.02.02-.01.04-.02.06-.03,0,0,.02,0,.03-.01.04-.02.01,0-.01,0,.04,0,.09-.03.13-.04.02,0,.05,0,.07-.01.04,0-.06,0-.02,0,.01,0,.03,0,.04,0,.05,0,.1,0,.15,0,.03,0,.05,0,.08,0,.01,0,.02,0,.04,0,.04,0,.02.01,0,0,.05.02.11.02.16.03.11.02.22.06.32.1.02,0,.05.02.07.03.01,0,.02.01.04.01-.04,0-.04-.02,0,0,.05.02.1.05.15.07.09.05.19.1.27.16.04.03.08.06.12.08.01,0-.05-.04-.02-.01,0,0,.02.01.02.02.02.01.03.03.05.04.03.03.06.06.09.09.01.01.02.03.03.04.03.03-.04-.06,0,0,.02.03.03.05.05.08,0,0-.02-.07-.02-.04,0,0,0,.01,0,.02,0,0,0,.01,0,.02.02.03,0-.07,0-.04,0,0,0,.02,0,.03,0,0,.01-.08,0-.05,0,.04.01-.03.02-.04-.02.04,0-.01.02-.02,0,0-.05.05,0,0,.04-.03,0,0,0,0-.05.03.05-.01.01,0-.02,0-.03.01-.05.01,0,0-.02,0-.03,0-.04,0,0,0,.02,0-.05,0-.1,0-.15,0-.06,0-.13,0-.19,0-.03,0-.07,0-.1-.01,0,0-.07,0-.03,0s-.03,0-.04,0c-.13-.02-.28.03-.31.17-.03.12.04.29.17.31Z"/>
              </g>
              <g>
                <path class="cls-17" d="M122.06,44.95c-2.43-.42,1.72-1.69,1.87-.06-.26.87-1.26-.17-1.87.06Z"/>
                <path class="cls-13" d="M122.13,44.7c-.13-.02-.25-.05-.38-.09-.03,0-.05-.02-.08-.03,0,0-.02,0-.02,0-.04-.02,0-.02.01,0-.01-.02-.08-.04-.1-.05,0,0-.01-.01-.02-.01-.03-.02,0-.03.02.02,0,0-.02-.02-.03-.02-.02-.02-.05-.06.01.02,0-.01-.03-.06,0,0s0,.01,0,0c.02.09,0,.06,0,.04s-.02.08,0,.04c.01-.05-.03.07,0,.02,0,0,.02-.02.02-.03,0,.03-.05.06-.01.02,0,0,.02-.02.03-.02.05-.05-.03.02,0,0,.06-.04.11-.07.18-.1s-.05.02,0,0c.02,0,.03-.01.05-.02.04-.02.09-.03.13-.04.09-.03.18-.05.27-.06.03,0,.11-.03.13-.02-.03-.01-.06,0-.01,0,.01,0,.02,0,.03,0,.03,0,.06,0,.09,0,.1,0,.2-.01.31,0,.05,0,.09,0,.14,0,.02,0,.05,0,.07,0,.03,0-.07-.01-.02,0,.02,0,.04,0,.05,0,.09.02.19.04.28.07.02,0,.04.02.06.02-.04,0-.05-.02-.01,0,0,0,.01,0,.02.01.04.02.08.04.12.07,0,0,.01,0,.02.01.04.03-.02,0-.01-.01,0,0,.04.03.04.04.02.02.03.03.05.05,0,0,0,.01.02.02.04.04-.02-.04,0,0s.04.07.06.1c0,0,.02.03.02.03,0,0-.02-.07,0-.02,0,.02.02.05.02.07,0,.02,0,.04.01.06.01.05,0-.01,0-.03,0,0-.03.07,0,.02,0,.02-.02.03-.03.05,0,.01-.01.02-.02.03-.02.02-.01.02,0-.01,0,0-.01.02-.02.02,0,0-.04.04,0,.01s-.02,0-.02.01c-.04.03.05,0,0,0-.01,0-.03,0-.04.01-.05.02.06,0,0,0-.02,0-.03,0-.05,0-.02,0-.03,0-.05,0-.05,0,.06.01,0,0-.15-.03-.3-.08-.45-.14-.31-.12-.67-.26-1.01-.14-.13.05-.21.17-.17.31.03.12.18.22.31.17.03-.01.06-.02.1-.03-.07.02.03,0,.05,0,.02,0,.13.02.06,0,.04,0,.09.02.13.03.16.04.31.1.46.16.29.11.64.22.93.05.08-.05.15-.12.2-.2s.12-.21.12-.31c0-.14-.05-.28-.11-.4-.1-.2-.27-.36-.47-.46-.44-.22-.95-.22-1.43-.16-.2.03-.39.08-.57.15s-.36.16-.47.32c-.12.18-.09.41.08.55.21.19.52.25.79.29.13.02.27-.04.31-.17.03-.12-.04-.28-.17-.31Z"/>
              </g>
            </g>
          </g>
          <g>
            <g>
              <path class="cls-1" d="M68.33,37.25c5.82,2.88,6.73,11.3,1.75,15.4l.72,3.76-9.22,1.78-.77-3.86c-12.2-4.61-4.12-22.97,7.52-17.08Z"/>
              <path class="cls-5" d="M68.01,57.81c-.24-1.07-4.46-14.65.79-14,1.48.97-.7,4.78-3.64,3.72-2.94-1.05-3.84-7.97-1.78-7.92,2.06.06,2.27,7.35-.48,8.43-2.75,1.09-5.61-2.35-3.96-2.92,3.87-1.83,5.96,14.36,6.16,14.4"/>
            </g>
            <g>
              <path class="cls-7" d="M70.8,56.41c.35,2.2,2.1,6.65-1.41,7.21-6.19,1.67-6.96.71-7.81-5.43l9.22-1.78Z"/>
              <g>
                <path class="cls-7" d="M62.1,61.01c.47-.4,10.69-1.29,9.99-2.66h0c.19-1.54-9.73,1.46-10.26,1.25-.39.08-.64.45-.57.84h0c.08.39.45.64.84.57Z"/>
                <path class="cls-7" d="M62.58,63.5c.47-.4,10.69-1.29,9.99-2.66h0c.19-1.54-9.73,1.46-10.26,1.25-.39.08-.64.45-.57.84h0c.08.39.45.64.84.57Z"/>
              </g>
            </g>
          </g>
          <g>
            <path class="cls-6" d="M120.54,44.04c-.3-3.08,6.09-2.85,6.79-4.92-.53,1.64,6.59,5.47,5.82,7.41-.06,1.54-1.14,3.43-.48,3.76,1.75.08.27-2.03,3.92-.9,6.22-7.08,2.72-18.87-9.94-17.72-7.27,2.06-9.42,7.57-6.1,12.36Z"/>
            <g>
              <path class="cls-13" d="M130.49,32.33c-.83.81-1.51,1.77-2.07,2.79-.43.79-.82,1.63-1.04,2.5-.08.31.4.44.48.13.22-.83.58-1.63.99-2.38.54-.98,1.19-1.9,1.99-2.69.23-.22-.12-.58-.35-.35h0Z"/>
              <path class="cls-13" d="M128.08,35.85c-1.2.16-2.06.93-2.91,1.73s-1.74,1.62-2.98,1.61c-.32,0-.32.5,0,.5,1.23,0,2.18-.67,3.04-1.47s1.66-1.71,2.85-1.86c.31-.04.32-.54,0-.5h0Z"/>
              <path class="cls-13" d="M128.88,34.36c-2.02-.39-3.59,1.09-5.42,1.62-.31.09-.18.57.13.48,1.7-.49,3.29-1.98,5.15-1.62.31.06.45-.42.13-.48h0Z"/>
              <path class="cls-13" d="M128.03,36.44c1.29.78,1.94,2.19,2.63,3.46s1.56,2.56,2.97,3.17c.29.13.55-.3.25-.43-2.88-1.26-3-5.06-5.6-6.63-.28-.17-.53.27-.25.43h0Z"/>
              <path class="cls-13" d="M129.15,34.82c1.49.1,2.55.98,3.35,2.19s1.3,2.44,2.18,3.52c.2.25.56-.11.35-.35-1.38-1.7-1.96-4.16-3.95-5.31-.59-.34-1.25-.51-1.93-.55-.32-.02-.32.48,0,.5h0Z"/>
              <path class="cls-13" d="M131.47,43.99c1.16,1.04,2.41,2.14,3.99,2.4.31.05.45-.43.13-.48-1.5-.25-2.68-1.29-3.77-2.27-.24-.21-.59.14-.35.35h0Z"/>
              <path class="cls-13" d="M133.6,34.41c1.32.92,1.98,2.47,2.58,3.91.05.13.17.21.31.17.12-.03.23-.18.17-.31-.65-1.57-1.37-3.2-2.81-4.21-.26-.18-.51.25-.25.43h0Z"/>
              <path class="cls-13" d="M126.52,32.62c-.56.17-1.09.42-1.59.73-.11.07-.16.23-.09.34s.22.16.34.09c.23-.15.48-.28.73-.39.13-.06.21-.09.35-.15.13-.05.26-.09.39-.13.12-.04.22-.18.17-.31s-.17-.22-.31-.17h0Z"/>
            </g>
          </g>
          <g>
            <path class="cls-8" d="M133.67,49.72c2.22-4.24,6.38,3.45.03,2.84"/>
            <g>
              <path class="cls-13" d="M134.86,50.27s.04-.07.06-.11c0,0,.04-.05.02-.03s0,0,0,0c0,0,.02-.02.02-.03.02-.03.05-.05.08-.08.03-.03-.04.02,0,0,.02-.01.03-.02.05-.03.01,0,.03-.02.04-.02,0,0,.06-.03.02-.01s0,0,.02,0c.02,0,.04-.01.06-.02.01,0,.03,0,.04,0,0,0,.01,0,.02,0,.03,0-.01.01-.02,0,0,0,.08,0,.1,0,.01,0,.03,0,.04,0,.05,0,0,.01-.01,0,0,.01.08.02.1.02.02,0,.03.01.05.02.05.02-.02-.01,0,0,.03.02.06.03.09.05.01,0,.03.02.04.03.04.02-.04-.03,0,0,.03.02.05.05.07.07.01.01.02.02.03.03.03.03-.03-.04,0,0,.02.03.04.06.06.09,0,0,.02.05.02.05,0,0-.02-.06,0-.02,0,.01,0,.02.01.03.01.04.02.08.03.12,0,0,0,.02,0,.03,0,.04,0,0,0-.01,0,.01,0,.05,0,.07,0,.05,0,.1,0,.15-.01.13.12.26.25.25.14,0,.24-.11.25-.25.03-.41-.13-.8-.47-1.04-.3-.22-.7-.23-1.03-.07-.21.1-.37.29-.48.49-.06.11-.03.28.09.34s.28.03.34-.09h0Z"/>
              <path class="cls-13" d="M135.4,49.78c-.04.14-.08.28-.11.43-.02.08-.04.16-.07.23-.01.04-.03.08-.04.12,0,.02-.01.04-.02.06,0,0,0,.02-.01.03.01-.03.02-.04,0-.02-.03.07-.07.14-.11.2,0,.01-.02.03-.03.04-.02.04.04-.04,0,0-.02.03-.05.05-.07.08-.04.04.04-.02,0,0-.02,0-.03.02-.05.03,0,0-.04.03-.05.03.04-.02.05-.02.02,0,0,0-.01,0-.02,0-.02,0-.03,0-.05.01,0,0-.02,0-.03,0-.03,0-.02,0,.02,0-.04,0-.09,0-.13,0-.13,0-.26.12-.25.25,0,.14.11.24.25.25.33.02.61-.15.8-.41.16-.23.25-.52.32-.79.04-.14.07-.28.11-.41.04-.13-.04-.28-.17-.31s-.27.04-.31.17h0Z"/>
            </g>
          </g>
          <g>
            <g>
              <path class="cls-4" d="M121.22,126.22l-21.78-55.97,4.84-1.94,21.78,55.97c-.16,1.23-4.07,2.49-4.84,1.94Z"/>
              <g>
                <g class="cls-15">
                  <g>
                    <path class="cls-5" d="M126.06,121.06s-1.86,4.11-7.28,2.8"/>
                    <path class="cls-5" d="M125,118.56s-1.86,4.11-7.28,2.8"/>
                    <path class="cls-5" d="M123.94,116.07s-1.86,4.11-7.28,2.8"/>
                    <path class="cls-5" d="M122.89,113.57s-1.86,4.11-7.28,2.8"/>
                    <path class="cls-5" d="M122.06,111.08s-1.86,4.11-7.28,2.8"/>
                    <path class="cls-5" d="M121.24,108.59s-1.86,4.11-7.28,2.8"/>
                    <path class="cls-5" d="M119.95,106.09s-1.86,4.11-7.28,2.8"/>
                  </g>
                </g>
                <path class="cls-5" d="M121.22,126.22l-21.78-55.97,4.84-1.94,21.78,55.97c-.16,1.23-4.07,2.49-4.84,1.94Z"/>
              </g>
            </g>
            <g>
              <path class="cls-9" d="M80.02,56.41c11.29,28.25,41.11,16.81,30.61-11.74-11.29-28.25-41.11-16.81-30.61,11.74Z"/>
              <path class="cls-2" d="M104.98,46.06c-3.86-10.06-11.19-16.94-17.64-17.22,21.88-7.39,37.77,42,11.93,44.06,8.41-2.17,10.32-14.42,5.7-26.85Z"/>
              <path class="cls-4" d="M87.04,28.95c.43-.17.87-.3,1.31-.42-14.63,7.63.51,47.1,16.48,43.02-20.38,10.09-38.25-34.76-17.79-42.6Z"/>
              <g>
                <path class="cls-13" d="M95.17,37.08c2.34,2.72,4.25,5.8,5.64,9.12.12.29.61.16.48-.13-1.43-3.4-3.37-6.54-5.77-9.34-.21-.24-.56.11-.35.35h0Z"/>
                <path class="cls-13" d="M101.64,48.63c.23.61.44,1.22.61,1.85.04.13.18.21.31.17s.21-.18.17-.31c-.17-.62-.38-1.24-.61-1.85-.05-.13-.17-.21-.31-.17-.12.03-.22.18-.17.31h0Z"/>
                <path class="cls-13" d="M102.07,67.15c-1.62,1.55-3.79.44-5.27-.74-1.59-1.27-3-2.91-4.02-4.67-.16-.28-.59-.03-.43.25,1.13,1.95,2.71,3.76,4.52,5.1,1.65,1.21,3.87,2.02,5.55.41.23-.22-.12-.58-.35-.35h0Z"/>
                <path class="cls-13" d="M90.28,58.5c.22.48.5.93.82,1.34.08.1.27.09.35,0,.1-.11.09-.24,0-.35,0-.01-.02-.02-.03-.04.02.02.01.02,0,0-.02-.02-.04-.05-.06-.07-.04-.05-.07-.1-.11-.15-.07-.1-.14-.21-.2-.31-.13-.21-.24-.43-.35-.66-.05-.12-.24-.16-.34-.09-.12.08-.15.21-.09.34h0Z"/>
              </g>
            </g>
          </g>
          <g>
            <path class="cls-8" d="M112.2,109.62c-.07,5.33,12.96-.92,12.49-1.4,25.31-1.37,27.33-3.56,24.41-27.4-1.21-1.53-11.63-.65-12.94,1.95,0,0,1.67,11.43,1.67,11.43,0,0-11.16,3-15.8,4.14,0,0-.93.01-2.34-1.62-3.73-3.72-2.48,2.3-1.48,3-.3.77-5.68,3.35-6.72,1.2-1.2-.15-2.1,1.74-1.16,2.55-1.59.11-1.06,2.96.43,3.16-2.17.78.92,3.24,1.44,3Z"/>
            <g>
              <path class="cls-5" d="M116.14,104c-4.6,1.41-5.81-.55-5.81-.55"/>
              <path class="cls-5" d="M110.76,106.61s2.89,1.25,5.93-.23"/>
              <path class="cls-5" d="M112.2,109.62s2.69.55,5.19-.62"/>
              <path class="cls-5" d="M137.83,94.19s3.65-.66,5.9,2.34"/>
            </g>
          </g>
          <g>
            <path class="cls-7" d="M142.07,64.64c4.43,1.74,7.73,12.47,7.03,16.17,0,0-6.34,3.97-12.94,1.95,0,0-1.45-5.43-1.51-10.22"/>
            <path class="cls-7" d="M149,78.33s-5.04,3.89-13.36,2.22"/>
          </g>
        </g>
      </g>
    </g>
  </g>
</svg>