<?xml version="1.0" encoding="UTF-8"?>
<svg id="Layer_2" xmlns="http://www.w3.org/2000/svg" viewBox="0 0 230 394.35">
  <defs>
    <style>
      .cls-1 {
        fill: #005293;
      }

      .cls-2 {
        fill: #e3eefa;
      }
    </style>
  </defs>
  <g id="Layer_1-2" data-name="Layer_1">
    <g>
      <path class="cls-1" d="M216.76,24.65v248.19c0,6.33-5.14,11.44-11.44,11.44l-9.96.16h-54.59l-85.7-.16c-16.58,0-31.42,7.39-41.51,19.02V24.65c0-6.3,5.11-11.41,11.41-11.41h180.36c6.3,0,11.44,5.11,11.44,11.41Z"/>
      <path class="cls-2" d="M155.87,151.78c20.16,6.99,29.14,22.35,29.14,38.32,0,35.13-31.13,49.1-60.47,49.1H57.67V77.33h59.48c40.92,0,59.88,18.16,59.88,41.31,0,13.37-7.18,26.55-21.16,33.13ZM113.95,111.66h-19.36v27.74h19.36c18.16,0,25.15-3.99,25.15-13.97,0-9.38-6.39-13.77-25.15-13.77ZM119.15,173.94h-24.55v30.93h24.55c19.16,0,27.94-3.59,27.94-15.57s-8.78-15.37-27.94-15.37Z"/>
      <path class="cls-2" d="M205.32,0H24.97C11.37,0,.32,11.02.32,24.65v280.25c0,6.88-.32,34.16-.32,34.41.06,15.23,6.23,28.98,16.19,38.88,9.96,9.99,23.71,16.16,38.88,16.16h150.25c13.62,0,24.68-11.02,24.68-24.65V24.65c0-13.62-11.05-24.65-24.68-24.65ZM213.45,377.81c-2.06,2.02-4.88,3.31-7.97,3.31H55.07c-10.86,0-20.72-4.14-28.18-10.99-1.99-1.8-.74-5.14,1.99-5.14h182.96c2.73,0,4.92,2.18,4.92,4.88,0,3.08-1.25,5.91-3.31,7.94ZM216.76,346.83c0,2.73-2.18,4.92-4.92,4.92H19.09c-2.41,0-4.53-1.7-5.01-4.15-.51-2.63-.84-5.4-.84-8.23v-.1c0-1.09.03-2.25.16-3.31.22-2.63,2.47-4.59,5.08-4.59h122.29v15.87l30.24-16.71,25.48,16.71v-15.87h15.36c2.73,0,4.92,2.22,4.92,4.92v10.54ZM140.77,318.17H24.71c-2.44,0-3.89-2.83-2.38-4.76,7.65-9.67,19.47-15.94,32.74-15.94h85.7v20.69ZM216.76,313.22c0,2.73-2.18,4.95-4.92,4.95h-15.36v-20.69h8.84c4.15,0,8-1,11.44-2.8v18.54ZM216.76,272.83c0,6.33-5.14,11.44-11.44,11.44l-9.96.16h-54.59l-85.7-.16c-16.58,0-31.42,7.39-41.51,19.02V24.65c0-6.3,5.11-11.41,11.41-11.41h180.36c6.3,0,11.44,5.11,11.44,11.41v248.19Z"/>
    </g>
  </g>
</svg>